<svg version="1.1" id="Layer_1" xmlns="http://www.w3.org/2000/svg" xmlns:xlink="http://www.w3.org/1999/xlink" x="0px" y="0px"
	 width="100%" viewBox="0 0 381 254" enable-background="new 0 0 381 254" xml:space="preserve">
<path fill="#000000" opacity="0.000000" stroke="none" 
	d="
M276.000000,255.000000 
	C184.000031,255.000000 92.500069,255.000000 1.000074,255.000000 
	C1.000049,170.333389 1.000049,85.666794 1.000025,1.000142 
	C127.999886,1.000095 254.999771,1.000095 381.999756,1.000047 
	C381.999817,85.666527 381.999817,170.333054 381.999908,254.999786 
	C346.833344,255.000000 311.666656,255.000000 276.000000,255.000000 
M45.000118,135.999908 
	C45.000118,135.999908 45.056831,135.975281 44.900658,135.434158 
	C44.569138,135.349548 44.237617,135.264938 43.530991,135.015182 
	C43.530991,135.015182 43.129368,134.933411 42.914467,134.355301 
	C42.254059,133.956818 41.593651,133.558350 40.537701,133.014282 
	C40.537701,133.014282 40.122646,132.940872 39.792225,132.272263 
	C34.188496,130.152817 28.764727,127.138214 22.125116,128.426559 
	C22.555166,129.565445 22.834244,130.304535 22.977222,131.543015 
	C23.022614,131.709473 23.068005,131.875946 23.047234,132.798889 
	C25.575586,139.618011 29.312862,145.483353 36.190434,149.730392 
	C42.032372,154.181549 48.074284,158.095734 56.121834,157.665054 
	C56.134220,158.489517 56.146603,159.313980 55.403137,160.271759 
	C51.630692,161.094803 48.011009,162.084671 48.093647,167.600235 
	C48.435478,168.046432 48.777309,168.492615 48.789227,169.684143 
	C48.840782,172.470520 48.892338,175.256912 48.987892,178.537170 
	C48.987892,178.537170 49.074554,179.025391 48.996876,179.954117 
	C49.352314,187.876999 49.198421,195.865295 50.205475,203.704468 
	C51.226379,211.651443 50.610687,214.652710 61.289356,214.036850 
	C63.110283,213.931839 64.965897,214.195892 66.763290,213.963303 
	C70.580803,213.469315 73.171509,211.885178 73.075233,207.316528 
	C72.989082,203.228241 73.546768,199.126404 73.937714,194.161713 
	C74.228264,188.707428 74.518806,183.253143 74.895920,176.915787 
	C74.879784,173.324738 74.863647,169.733704 74.981804,165.302444 
	C75.359245,162.166107 73.989708,160.793777 70.824203,160.961716 
	C68.561951,161.081757 66.286858,160.959595 63.657314,160.249619 
	C64.518967,156.194641 65.380615,152.139648 66.801529,147.759491 
	C68.234238,146.788055 69.666954,145.816620 71.848106,144.974442 
	C78.655609,143.774475 80.924484,137.939651 84.651100,132.810608 
	C84.790459,132.227753 84.929817,131.644882 85.711555,130.751938 
	C86.407486,128.533264 87.103416,126.314583 87.986702,123.320679 
	C87.753571,119.894760 85.931953,120.544731 84.070595,121.907318 
	C82.920319,122.749382 81.994766,123.898438 80.214279,124.957649 
	C78.803200,125.347900 77.392120,125.738144 75.301247,126.216751 
	C71.864906,130.148834 68.428566,134.080917 64.312386,137.532379 
	C63.554916,132.463028 62.797443,127.393669 61.929985,121.588211 
	C60.169399,122.264824 59.057613,122.692093 57.299179,122.862556 
	C53.359783,119.837997 50.104717,114.944298 43.366852,117.815483 
	C42.649368,117.896652 41.931889,117.977814 41.065273,118.787643 
	C42.022289,120.546097 42.979301,122.304550 44.012589,124.756989 
	C45.316410,125.863670 46.620232,126.970360 48.241184,128.704086 
	C49.643135,129.455353 50.975945,130.529160 52.470276,130.849472 
	C53.545380,131.079941 54.835922,130.305374 56.540970,130.119186 
	C56.740017,130.405518 56.939060,130.691833 57.296577,131.726059 
	C58.194515,136.905151 59.145866,142.076523 59.898781,147.276611 
	C59.966015,147.740982 58.745419,148.391800 57.811401,148.446457 
	C57.211456,147.951691 56.611511,147.456940 55.999599,146.999863 
	C55.999599,146.999863 56.037205,146.991150 55.971367,146.310104 
	C54.654350,144.860611 53.337330,143.411118 51.999958,142.000137 
	C51.999958,142.000137 52.042694,141.990707 51.910072,141.469589 
	C51.610806,141.294540 51.311535,141.119492 50.999664,140.999710 
	C50.999664,140.999710 51.050640,140.976120 50.866837,140.406143 
	C50.251461,139.922195 49.636089,139.438232 48.999931,138.999969 
	C48.999931,138.999969 49.044262,138.976822 48.814327,138.361389 
	C47.885563,137.888000 46.956799,137.414627 45.999672,136.999252 
	C45.999672,136.999252 46.061443,136.982971 45.907578,136.471970 
	C45.611458,136.295029 45.315338,136.118073 45.000118,135.999908 
M301.000000,71.999245 
	C301.000000,71.999245 301.013916,71.977966 300.811005,71.382553 
	C300.209381,71.239243 299.607788,71.095932 298.791199,70.394447 
	C298.220093,70.255264 297.649017,70.116089 296.921112,69.464928 
	C296.620605,69.299698 296.320129,69.134468 296.000000,69.000000 
	C296.000000,69.000000 296.025909,68.974380 295.790680,68.330666 
	C294.228851,67.535522 292.666992,66.740379 291.069031,65.207657 
	C292.394135,62.481335 293.719238,59.755013 295.642609,56.693859 
	C296.760956,53.217571 298.229950,49.808994 298.917236,46.249474 
	C300.008789,40.596550 293.915741,41.794609 291.660095,39.256062 
	C291.232361,38.774651 290.624329,38.453445 289.579956,37.363712 
	C285.813416,37.229397 281.918976,36.460960 278.325653,37.185600 
	C275.963745,37.661911 274.036316,40.292519 271.973511,42.004925 
	C271.973511,42.004925 271.954681,41.932030 271.334198,42.316761 
	C270.607147,45.953125 265.918579,49.821571 272.005524,53.017555 
	C272.005524,53.017555 271.945251,53.022419 272.155060,53.467323 
	C272.349579,53.751621 272.614441,53.933231 272.990417,54.689915 
	C273.359833,55.494095 273.729218,56.298271 274.084900,57.786190 
	C275.026917,59.254959 275.968903,60.723732 277.072937,62.687737 
	C277.348114,63.112465 277.623260,63.537193 277.197968,64.064629 
	C274.305511,67.917442 270.323730,70.219650 266.000671,71.998123 
	C266.000671,71.998123 265.968140,71.948456 265.296600,72.011162 
	C264.182892,72.996391 263.069153,73.981628 262.000000,75.000000 
	C262.000000,75.000000 261.967041,74.955376 261.312134,75.181168 
	C260.178101,77.107689 259.044098,79.034218 257.982544,80.994415 
	C257.982544,80.994415 257.948120,80.922325 257.292877,81.194153 
	C257.158020,82.119881 257.023163,83.045609 256.243042,84.285095 
	C255.001938,86.866409 253.631668,89.394501 252.542282,92.038330 
	C248.029526,102.990257 248.838928,113.317406 257.001404,123.753181 
	C258.864166,126.180496 260.775360,128.572693 262.569519,131.049698 
	C263.487122,132.316513 264.776672,133.684952 264.898376,135.093826 
	C265.465271,141.655655 265.788940,148.244354 265.995300,154.829819 
	C266.193481,161.153778 266.140747,167.485565 266.029572,174.686523 
	C265.641510,179.215149 264.936066,183.745331 264.958008,188.271973 
	C264.978485,192.485062 265.773651,196.694382 266.056549,201.664383 
	C266.348694,203.113480 266.640869,204.562561 267.001892,206.005875 
	C267.001892,206.005875 266.996490,205.936951 266.473541,206.087845 
	C266.293671,206.389999 266.113770,206.692154 265.996002,207.001633 
	C265.996002,207.001633 265.981415,206.940796 265.323914,207.179916 
	C263.402618,208.594559 262.456696,210.142700 264.075867,212.492477 
	C264.980408,213.805145 265.496704,215.385345 266.067871,217.601196 
	C265.860931,218.644821 265.148071,219.975052 265.545380,220.676361 
	C266.585419,222.512100 268.013550,225.359299 269.462585,225.468231 
	C272.233582,225.676590 275.282623,224.576950 277.852692,223.292618 
	C278.453186,222.992523 277.850433,219.713242 277.343597,217.935089 
	C276.869934,216.273468 275.788605,214.785065 275.603973,212.899887 
	C276.803162,211.617004 278.002350,210.334106 279.325226,208.918869 
	C275.552734,205.480896 277.505188,202.638260 278.639130,198.789062 
	C280.563202,192.257706 280.299561,185.081863 281.784363,178.025177 
	C283.179871,178.047180 284.575348,178.069199 286.036865,178.929581 
	C286.358704,180.154602 286.846100,181.362335 286.976288,182.607391 
	C288.030334,192.689026 289.017334,202.777679 289.338013,213.273468 
	C289.547028,215.203247 289.756042,217.133026 289.999329,219.005219 
	C289.999329,219.005219 289.938904,219.034195 290.293884,219.783813 
	C292.515564,219.887512 294.737213,219.991196 297.295105,220.763565 
	C301.081635,223.070786 305.160614,222.675308 309.185822,221.809692 
	C310.219666,221.587357 311.379761,220.514465 311.809509,219.536804 
	C312.019196,219.059814 310.825623,217.720276 310.018005,217.091064 
	C308.125427,215.616577 306.082550,214.335022 303.977722,212.305481 
	C303.925110,211.854355 303.872498,211.403244 303.970032,210.127213 
	C302.978760,202.547470 301.711151,194.989594 301.108795,187.379074 
	C300.791199,183.366257 301.634430,179.261566 302.714569,174.705887 
	C302.806976,169.581619 302.702332,164.444427 303.037720,159.336121 
	C303.548523,151.555527 304.364014,143.794968 305.000122,136.000015 
	C305.000122,136.000015 305.030426,136.047424 305.736328,135.696533 
	C305.730743,134.129898 305.725189,132.563263 305.884277,130.487137 
	C305.922302,130.312744 305.960297,130.138367 306.717041,129.926147 
	C307.830505,128.293945 308.943970,126.661736 310.005310,124.997742 
	C310.005310,124.997742 310.031616,125.052803 310.704498,124.798721 
	C310.736633,123.861412 310.768738,122.924095 310.968628,121.563286 
	C310.968628,121.563286 311.032257,121.112244 311.708527,120.797707 
	C312.801117,117.463104 314.872040,114.098198 314.769836,110.800621 
	C314.591736,105.052330 313.166321,99.327744 312.061096,93.632538 
	C311.743927,91.997894 310.730560,90.498337 310.010529,88.999252 
	C310.010529,88.999252 310.074890,88.978661 309.991028,88.338600 
	C309.671539,87.857101 309.352081,87.375610 308.968231,86.445175 
	C308.968231,86.445175 308.812866,86.019081 308.979584,85.267792 
	C308.666412,84.145332 308.353210,83.022873 307.971161,81.462128 
	C307.971161,81.462128 307.813385,81.047470 307.965271,80.314781 
	C305.987457,77.855202 304.009674,75.395622 302.008362,72.998558 
	C302.008362,72.998558 302.070038,72.972908 301.916931,72.463608 
	C301.617554,72.303406 301.318176,72.143204 301.000000,71.999245 
M172.002487,212.003525 
	C172.002487,212.003525 171.932297,212.010315 171.916473,211.640945 
	C171.916473,211.640945 171.781067,211.296967 172.492279,210.914566 
	C173.322632,208.915390 174.857346,206.915833 174.856262,204.917114 
	C174.852402,197.854553 174.568008,190.770447 173.941574,183.734436 
	C172.627182,168.971069 177.606857,155.085205 179.670181,140.802551 
	C180.787872,133.065796 181.873779,125.486534 179.063431,117.533829 
	C179.063431,117.533829 179.039810,117.151184 179.538116,116.935005 
	C179.377701,116.590164 179.217285,116.245323 179.051559,115.988846 
	C179.051559,115.988846 179.139740,115.980972 179.005783,115.254051 
	C178.956848,114.519890 178.907913,113.785721 179.022812,112.344688 
	C179.292374,111.236351 179.561935,110.128014 179.935654,108.487785 
	C179.941254,108.307213 179.946869,108.126640 180.693207,107.864685 
	C184.813171,107.029549 186.499756,104.152641 186.615891,100.307564 
	C186.677704,98.261070 186.113388,96.195663 186.533829,93.911247 
	C191.222000,90.503899 190.817734,87.824951 184.866409,84.322342 
	C183.887070,82.197639 182.907730,80.072929 182.094788,77.172134 
	C181.687622,75.639458 181.643158,73.861443 180.804047,72.620956 
	C178.457855,69.152512 178.477173,65.691750 180.002655,62.004803 
	C180.002655,62.004803 180.030731,62.025558 180.496704,61.718075 
	C180.607346,61.191216 180.717972,60.664360 181.186874,59.439594 
	C185.155594,53.387863 182.271820,45.677345 175.479263,43.922112 
	C173.301636,43.359394 171.281540,42.145954 169.093643,41.674076 
	C166.154617,41.040195 162.261810,39.470215 160.294876,40.709293 
	C154.770355,44.189510 149.997726,48.874073 145.007599,53.175365 
	C144.496902,53.615570 144.229736,54.719479 144.341202,55.439243 
	C145.138947,60.590054 146.064148,65.721115 146.335495,71.196182 
	C139.254898,74.680969 139.124191,81.665718 137.196106,88.437347 
	C135.497406,93.342278 134.789001,97.923706 141.059860,101.013855 
	C142.093765,103.727478 143.127655,106.441109 144.395889,109.882515 
	C143.934830,113.613144 143.136017,117.337677 143.068512,121.075417 
	C142.683609,142.386047 142.472992,163.699814 142.041016,185.422928 
	C142.041016,185.422928 141.991806,185.861420 141.221191,186.310165 
	C141.144974,189.436234 140.909515,192.568481 141.030563,195.686890 
	C141.204071,200.156570 141.637802,204.616135 141.990097,208.999298 
	C141.990097,208.999298 141.913940,209.039307 141.993851,209.730682 
	C142.292816,210.516907 142.591782,211.303116 143.128952,212.652985 
	C143.464935,213.149155 143.800919,213.645309 144.290985,214.823883 
	C147.326462,218.720856 151.793381,218.535645 156.058670,219.007202 
	C159.115021,219.345108 160.261932,217.902542 160.731842,215.013748 
	C161.135086,215.051117 161.538330,215.088486 162.001312,215.927811 
	C164.656982,219.895844 168.549271,217.386871 172.597290,217.942841 
	C176.721146,216.644943 174.263092,214.800095 173.004013,212.988007 
	C173.004013,212.988007 172.937195,212.986893 172.853012,212.496674 
	C172.664261,212.170227 172.382660,212.029266 172.002487,212.003525 
z"/>
<path fill="#FBFDFD" opacity="1.000000" stroke="none" 
	d="
M297.077911,69.976906 
	C297.649017,70.116089 298.220093,70.255264 299.043823,70.944695 
	C299.868927,71.655945 300.441406,71.816956 301.013916,71.977966 
	C301.013916,71.977966 301.000000,71.999245 301.101379,72.231400 
	C301.491852,72.633331 301.780945,72.803116 302.070038,72.972900 
	C302.070038,72.972908 302.008362,72.998558 302.043549,73.326202 
	C303.990295,76.118385 305.901855,78.582924 307.813385,81.047470 
	C307.813385,81.047470 307.971161,81.462128 307.992401,82.046516 
	C308.280060,83.760300 308.546448,84.889687 308.812866,86.019081 
	C308.812866,86.019081 308.968231,86.445175 309.008667,86.985901 
	C309.391022,88.010643 309.732941,88.494652 310.074890,88.978661 
	C310.074890,88.978661 310.010529,88.999252 310.008423,89.388077 
	C310.342682,91.523407 310.797729,93.256699 310.993927,95.018806 
	C311.682709,101.204567 312.527130,107.389694 312.795074,113.597389 
	C312.901917,116.072372 311.660126,118.605553 311.032257,121.112244 
	C311.032257,121.112244 310.968628,121.563286 310.652191,122.009941 
	C310.234375,123.321999 310.132996,124.187401 310.031616,125.052803 
	C310.031616,125.052803 310.005310,124.997742 309.691376,125.038574 
	C308.251038,126.707588 307.124664,128.335785 305.998260,129.963974 
	C305.960297,130.138367 305.922302,130.312744 305.569031,131.030457 
	C305.179321,133.064987 305.104858,134.556198 305.030426,136.047424 
	C305.030426,136.047424 305.000122,136.000015 304.663452,136.061539 
	C303.326996,138.477905 301.548248,140.809174 301.476074,143.192123 
	C301.273193,149.888657 301.700439,156.609985 302.022827,163.314621 
	C302.223083,167.478577 302.176575,171.493927 298.518555,174.787018 
	C295.738220,174.970001 293.388336,175.060410 290.843933,174.865082 
	C290.177826,174.526871 289.602020,174.271255 289.250061,174.451889 
	C282.087128,178.127396 276.167206,173.876007 270.074554,171.295303 
	C269.048004,170.860489 268.189423,168.918228 268.080902,167.604126 
	C267.271454,157.799530 265.781891,147.932266 266.281281,138.175522 
	C266.690918,130.172073 261.884644,126.900497 256.902039,123.028091 
	C248.838928,113.317406 248.029526,102.990257 252.542282,92.038330 
	C253.631668,89.394501 255.001938,86.866409 256.855652,83.939453 
	C257.628235,82.703308 257.788177,81.812820 257.948120,80.922325 
	C257.948120,80.922325 257.982544,80.994415 258.268311,80.851425 
	C259.691711,78.790749 260.829376,76.873062 261.967041,74.955368 
	C261.967041,74.955376 262.000000,75.000000 262.346527,75.002106 
	C263.784760,73.985634 264.876434,72.967041 265.968140,71.948456 
	C265.968140,71.948456 266.000671,71.998123 266.404175,72.003601 
	C269.978180,71.379646 273.148651,70.750206 276.897369,70.005974 
	C277.486328,70.516647 278.817261,71.670677 280.135864,72.844482 
	C280.123474,72.864258 280.106323,72.904266 280.132935,73.139084 
	C280.287292,73.683365 280.508057,73.896439 280.932007,74.201691 
	C281.042145,74.390259 281.127075,74.818687 281.076416,75.189987 
	C281.370819,77.999855 281.098602,80.760765 282.173187,82.818344 
	C285.836945,89.833679 288.020660,96.868996 285.442444,104.787544 
	C285.302399,105.217613 287.063843,106.266792 287.989746,107.393936 
	C288.039734,108.498291 288.040161,109.236504 287.735474,110.259132 
	C287.199951,114.129585 286.698090,117.727005 286.847992,121.297058 
	C286.929077,123.228447 288.122559,125.113113 288.877380,127.339264 
	C288.996185,128.091415 289.051880,128.523178 288.792542,129.226120 
	C288.651001,133.915054 288.773804,138.335480 289.008881,142.749939 
	C289.455780,151.141617 289.966919,159.529877 290.451355,167.919571 
	C290.855988,166.508682 290.980530,165.080826 290.984497,163.652634 
	C291.003967,156.673737 290.891876,149.692673 291.037415,142.716782 
	C291.098175,139.804214 291.682587,136.902603 292.030212,133.578583 
	C292.031708,130.100906 292.031860,127.040657 292.023376,123.657639 
	C292.068756,122.908264 292.122772,122.481644 292.484009,121.840363 
	C294.731598,117.946968 294.686890,114.382469 292.120667,110.597244 
	C292.042389,109.501747 292.020935,108.768806 292.292236,107.751923 
	C292.133698,104.278717 291.682404,101.089447 291.170349,97.485237 
	C290.948425,95.690636 290.787231,94.310974 290.722961,92.519989 
	C290.911957,90.421715 291.003998,88.734756 291.465759,86.948265 
	C291.617859,82.924789 291.400208,79.000847 291.097595,74.739166 
	C290.883026,73.957291 290.753448,73.513153 290.743652,72.824196 
	C290.898407,72.401108 290.933441,72.222839 291.251648,71.843552 
	C293.031830,70.753143 294.528870,69.863762 296.025909,68.974380 
	C296.025909,68.974380 296.000000,69.000000 296.102631,69.227631 
	C296.496155,69.629135 296.787018,69.803017 297.077911,69.976906 
M304.103394,128.648834 
	C307.536865,124.495407 307.091919,122.741692 301.991211,121.497871 
	C301.991211,124.182648 301.991211,126.794945 301.991211,129.407242 
	C302.614685,129.377884 303.238190,129.348526 304.103394,128.648834 
M301.002319,107.762894 
	C301.002319,110.923424 301.002319,114.083961 301.002319,117.244492 
	C301.483978,117.243591 301.965668,117.242699 302.447327,117.241798 
	C302.770599,112.043541 303.093872,106.845284 303.417114,101.647026 
	C303.034515,101.546692 302.651917,101.446358 302.269287,101.346024 
	C301.847046,103.189384 301.424835,105.032738 301.002319,107.762894 
z"/>
<path fill="#0FF6DA" opacity="1.000000" stroke="none" 
	d="
M181.928375,77.948227 
	C182.907730,80.072929 183.887070,82.197639 185.024155,84.990005 
	C185.472977,86.223885 185.776611,86.784050 186.052444,87.357582 
	C186.575760,88.445709 187.083145,89.541504 187.597137,90.634117 
	C186.311310,90.806007 185.025116,90.975060 183.739761,91.150429 
	C181.515518,91.453873 179.291824,91.761246 176.884491,91.832443 
	C176.165588,91.385918 175.630127,91.173935 174.969177,90.832733 
	C174.523926,90.762856 174.204147,90.822182 173.487305,90.841614 
	C171.514618,90.750298 169.938980,90.698883 168.000610,90.443977 
	C166.011322,90.127815 164.301437,90.299316 162.773254,89.851196 
	C157.376617,88.268730 155.133682,90.509789 154.776123,95.958755 
	C152.409317,96.097672 150.102188,96.636292 148.402649,95.854340 
	C144.872406,94.230103 141.723114,93.690308 137.838455,97.634346 
	C137.838455,93.564270 137.838455,90.816536 137.838455,88.068802 
	C139.124191,81.665718 139.254898,74.680969 147.110291,71.081573 
	C148.826859,71.023315 149.768631,71.079674 150.883179,71.349045 
	C153.987564,74.044998 157.022614,76.417870 159.818375,79.045372 
	C162.094360,81.184372 163.592972,81.498558 164.935471,78.180077 
	C165.987198,75.580292 167.445724,73.145058 169.139435,70.693130 
	C174.406921,71.899147 179.643127,72.387657 181.928375,77.948227 
z"/>
<path fill="#3D3D56" opacity="1.000000" stroke="none" 
	d="
M49.074554,179.025391 
	C49.074554,179.025391 48.987892,178.537170 49.022579,177.963654 
	C49.080536,177.170380 49.103806,176.950592 49.580513,176.785797 
	C58.001732,176.767258 65.969513,176.693726 74.013550,176.862091 
	C74.329659,177.335617 74.569504,177.567230 74.809349,177.798859 
	C74.518806,183.253143 74.228264,188.707428 73.504715,194.697861 
	C72.712265,198.097565 71.811241,201.018814 72.108856,203.812378 
	C72.685043,209.220657 69.573334,211.409500 65.303833,212.689163 
	C58.355198,214.771835 52.414150,211.594742 51.983051,205.867889 
	C51.352512,197.491638 50.646881,189.120834 49.918491,180.752487 
	C49.866646,180.156830 49.366341,179.600174 49.074554,179.025391 
z"/>
<path fill="#3D3E57" opacity="1.000000" stroke="none" 
	d="
M150.710403,71.136024 
	C149.768631,71.079674 148.826859,71.023315 147.416962,70.912704 
	C146.064148,65.721115 145.138947,60.590054 144.341202,55.439243 
	C144.229736,54.719479 144.496902,53.615570 145.007599,53.175365 
	C149.997726,48.874073 154.770355,44.189510 160.294876,40.709293 
	C162.261810,39.470215 166.154617,41.040195 169.093643,41.674076 
	C171.281540,42.145954 173.301636,43.359394 175.479263,43.922112 
	C182.271820,45.677345 185.155594,53.387863 180.795959,59.953224 
	C180.280273,60.986423 180.155502,61.505989 180.030731,62.025558 
	C180.030731,62.025558 180.002655,62.004803 179.632507,62.102242 
	C178.596756,65.038857 177.931152,67.878029 177.398727,70.149063 
	C173.706161,70.149063 170.345520,70.149063 166.766754,70.093567 
	C166.548630,70.038063 166.113266,69.923691 166.100525,69.546753 
	C167.360596,65.949417 167.881577,62.020981 170.087173,59.679092 
	C173.184692,56.390152 170.990250,54.975132 169.108566,53.159336 
	C167.970917,52.061489 166.487030,51.322433 165.140137,50.409592 
	C161.759888,52.741505 158.346313,55.096394 154.514923,57.739529 
	C158.835480,62.157764 159.040939,66.449989 155.077209,70.832336 
	C153.385788,70.957451 152.048096,71.046738 150.710403,71.136024 
z"/>
<path fill="#0FF6DE" opacity="1.000000" stroke="none" 
	d="
M266.227783,200.905365 
	C265.773651,196.694382 264.978485,192.485062 264.958008,188.271973 
	C264.936066,183.745331 265.641510,179.215149 266.521942,174.255615 
	C271.661346,175.275436 276.308380,176.726166 280.955414,178.176910 
	C280.299561,185.081863 280.563202,192.257706 278.639130,198.789062 
	C277.505188,202.638260 275.552734,205.480896 279.325226,208.918869 
	C278.002350,210.334106 276.803162,211.617004 274.892609,213.010223 
	C272.847351,213.156921 271.513458,213.193283 269.790619,213.156158 
	C264.471741,213.145844 265.329651,209.985931 265.981415,206.940796 
	C265.981415,206.940796 265.996002,207.001633 266.213928,206.904968 
	C266.620056,206.517838 266.808258,206.227402 266.996490,205.936951 
	C266.996490,205.936951 267.001892,206.005875 267.252319,205.790253 
	C267.077759,204.018219 266.652771,202.461792 266.227783,200.905365 
z"/>
<path fill="#E9C2C3" opacity="1.000000" stroke="none" 
	d="
M179.952469,107.946068 
	C179.946869,108.126640 179.941254,108.307213 179.533051,108.804550 
	C177.911072,109.829437 176.691696,110.537560 175.117920,111.123917 
	C167.777863,111.244377 160.792221,111.486603 153.460236,111.516907 
	C151.050110,110.968315 148.986328,110.631630 146.829575,109.970291 
	C145.878250,109.482010 145.019897,109.318375 144.161545,109.154739 
	C143.127655,106.441109 142.093765,103.727478 141.299484,100.376389 
	C142.191605,98.613579 142.844101,97.488235 143.645920,96.105362 
	C145.668823,96.812370 147.472046,97.737099 149.371521,98.023415 
	C151.260010,98.308075 153.245224,97.951088 155.491302,97.905151 
	C156.200287,97.914986 156.606003,97.895142 157.413940,97.924194 
	C159.384109,98.398331 160.941605,98.867889 162.522003,99.240349 
	C167.021133,100.300697 171.523499,101.252403 175.970871,98.075165 
	C176.775269,97.694550 177.266449,97.328026 178.050858,96.797241 
	C178.576614,95.793846 178.809174,94.954712 179.041504,94.084625 
	C179.041275,94.053680 179.101593,94.039688 179.356705,94.009476 
	C180.028534,93.724319 180.445267,93.469376 181.209229,93.164589 
	C182.021423,93.149391 182.486374,93.184036 183.042068,93.602554 
	C185.106674,99.330864 184.678009,104.127930 179.952469,107.946068 
z"/>
<path fill="#4F2F50" opacity="1.000000" stroke="none" 
	d="
M274.098602,57.102455 
	C273.729218,56.298271 273.359833,55.494095 272.866272,54.129452 
	C272.541962,53.291374 272.276337,53.109184 271.945251,53.022419 
	C271.945251,53.022419 272.005524,53.017555 271.947693,52.645248 
	C271.911469,48.825970 271.933075,45.379002 271.954712,41.932030 
	C271.954681,41.932030 271.973511,42.004925 272.303650,41.950790 
	C277.691925,37.141880 283.962036,37.901939 290.099457,38.058327 
	C290.624329,38.453445 291.232361,38.774651 291.660095,39.256062 
	C293.915741,41.794609 300.008789,40.596550 298.917236,46.249474 
	C298.229950,49.808994 296.760956,53.217571 295.100983,56.783157 
	C294.152802,56.579945 293.746277,56.287430 293.310303,55.891785 
	C293.280914,55.788658 293.172028,55.603878 293.171265,55.531166 
	C293.170502,55.458458 293.135956,55.317196 293.095367,54.940479 
	C292.753754,53.802647 292.410675,53.055187 292.158295,52.278259 
	C290.148285,46.089691 284.595337,47.278519 280.385071,47.600388 
	C278.730652,47.726864 277.428528,52.178745 275.918640,54.631733 
	C275.384308,55.499828 274.709351,56.281391 274.098602,57.102455 
z"/>
<path fill="#CA7283" opacity="1.000000" stroke="none" 
	d="
M274.091736,57.444324 
	C274.709351,56.281391 275.384308,55.499828 275.918640,54.631733 
	C277.428528,52.178745 278.730652,47.726864 280.385071,47.600388 
	C284.595337,47.278519 290.148285,46.089691 292.158295,52.278259 
	C292.410675,53.055187 292.753754,53.802647 292.955048,54.932892 
	C292.855316,55.302017 292.795197,55.591537 292.795197,55.591537 
	C292.795197,55.591537 293.172028,55.603878 293.172028,55.603878 
	C293.172028,55.603878 293.280914,55.788658 293.189148,56.237366 
	C290.771088,61.079372 288.444824,65.472672 285.914520,70.251244 
	C284.244171,69.057625 282.693604,68.156578 281.401184,66.973564 
	C279.793030,65.501587 278.398010,63.796764 276.910919,62.192505 
	C275.968903,60.723732 275.026917,59.254959 274.091736,57.444324 
z"/>
<path fill="#2EE2F4" opacity="1.000000" stroke="none" 
	d="
M179.125153,117.912201 
	C181.873779,125.486534 180.787872,133.065796 179.670181,140.802551 
	C177.606857,155.085205 172.627182,168.971069 173.941574,183.734436 
	C174.568008,190.770447 174.852402,197.854553 174.856262,204.917114 
	C174.857346,206.915833 173.322632,208.915390 171.912369,211.109589 
	C171.332458,211.304626 170.885925,211.246689 170.918579,210.949402 
	C170.964783,210.453186 170.978333,210.254272 171.142517,209.683136 
	C171.833878,206.409134 172.853912,203.503189 172.828827,200.606293 
	C172.740021,190.359634 172.118774,180.116898 172.069427,169.870911 
	C172.049805,165.798462 172.797531,161.684052 173.551529,157.655304 
	C174.628189,151.902573 176.126328,146.229721 177.261932,140.486664 
	C177.999924,136.754547 178.413116,132.958191 179.033401,128.775269 
	C178.542603,127.593864 177.767334,125.727776 176.988144,123.454102 
	C177.697861,121.335083 178.411499,119.623642 179.125153,117.912201 
z"/>
<path fill="#39DDF4" opacity="1.000000" stroke="none" 
	d="
M291.038452,175.150818 
	C293.388336,175.060410 295.738220,174.970001 298.884216,174.902954 
	C300.438080,175.016998 301.195801,175.107666 301.953522,175.198334 
	C301.634430,179.261566 300.791199,183.366257 301.108795,187.379074 
	C301.711151,194.989594 302.978760,202.547470 303.549530,210.553970 
	C301.718109,211.633865 300.307190,212.286987 298.666351,212.964813 
	C298.436432,212.989502 297.996094,213.130783 297.598572,213.083511 
	C296.142120,213.121338 295.083221,213.206436 293.700836,213.224335 
	C292.937866,213.157623 292.498383,213.158081 291.730469,213.049225 
	C290.942963,212.914673 290.483887,212.889435 290.024780,212.864197 
	C289.017334,202.777679 288.030334,192.689026 286.976288,182.607391 
	C286.846100,181.362335 286.358704,180.154602 286.207886,178.246231 
	C287.932068,176.758865 289.485260,175.954849 291.038452,175.150818 
M296.207703,177.020584 
	C288.972412,176.971802 288.683167,176.986465 289.039673,184.019806 
	C289.430817,191.736282 290.215759,199.450302 291.238525,207.110718 
	C291.853180,211.714523 296.456116,213.557220 299.568359,210.309265 
	C301.018677,208.795715 301.039581,205.440521 300.900879,202.965378 
	C300.496033,195.740631 299.768158,188.529297 298.961792,181.335693 
	C298.800629,179.897827 297.731903,178.561691 296.207703,177.020584 
z"/>
<path fill="#1AEFDF" opacity="1.000000" stroke="none" 
	d="
M43.129368,134.933411 
	C43.129368,134.933411 43.530991,135.015182 43.860676,135.296432 
	C44.427242,135.823471 44.716068,135.955994 45.056831,135.975281 
	C45.056831,135.975281 45.000118,135.999908 45.098129,136.217682 
	C45.484577,136.617981 45.773010,136.800476 46.061440,136.982971 
	C46.061443,136.982971 45.999672,136.999252 46.045109,137.325882 
	C47.075119,138.093948 48.059689,138.535385 49.044262,138.976822 
	C49.044262,138.976822 48.999931,138.999969 49.033749,139.310333 
	C49.728592,140.072510 50.389614,140.524307 51.050640,140.976120 
	C51.050640,140.976120 50.999664,140.999710 51.098663,141.214447 
	C51.479340,141.616348 51.761017,141.803528 52.042694,141.990707 
	C52.042694,141.990707 51.999958,142.000137 51.995972,142.349762 
	C53.340389,144.129974 54.688797,145.560562 56.037205,146.991150 
	C56.037205,146.991150 55.999599,146.999863 55.999809,147.356537 
	C55.424366,150.151596 60.445076,154.069046 54.060062,154.621124 
	C50.172600,151.359756 46.305241,148.454712 42.305782,145.353058 
	C41.968193,144.905411 41.719532,144.709000 41.330521,144.240265 
	C39.659992,141.999054 38.150707,140.027206 36.496063,138.185989 
	C34.680210,136.165405 32.730377,134.265213 31.265137,132.211487 
	C34.501785,132.387222 37.312218,132.664047 40.122646,132.940872 
	C40.122646,132.940872 40.537701,133.014282 40.812744,133.397263 
	C41.768314,134.164642 42.448841,134.549026 43.129368,134.933411 
z"/>
<path fill="#2A6B7D" opacity="1.000000" stroke="none" 
	d="
M56.158985,160.138443 
	C56.146603,159.313980 56.134220,158.489517 56.416645,157.313416 
	C59.784164,156.776184 60.525772,155.171967 59.461475,152.456772 
	C59.005562,151.293671 58.568535,150.123154 58.122925,148.956009 
	C58.745419,148.391800 59.966015,147.740982 59.898781,147.276611 
	C59.145866,142.076523 58.194515,136.905151 57.507843,131.357452 
	C58.627743,130.670685 59.536381,130.352524 60.286991,129.731430 
	C59.482613,128.245605 58.836262,127.062721 58.192982,125.532547 
	C58.112644,124.496620 58.029232,123.807991 57.945824,123.119354 
	C59.057613,122.692093 60.169399,122.264824 61.929985,121.588211 
	C62.797443,127.393669 63.554916,132.463028 64.842361,137.962158 
	C65.119904,139.495056 64.867477,140.598175 64.423447,141.970901 
	C64.168007,143.110001 64.104156,143.979492 63.933704,145.146378 
	C64.632149,146.324066 65.437202,147.204376 66.242264,148.084671 
	C65.380615,152.139648 64.518967,156.194641 63.412144,160.602386 
	C60.830978,160.682922 58.494984,160.410675 56.158985,160.138443 
z"/>
<path fill="#D7F5FE" opacity="1.000000" stroke="none" 
	d="
M290.843933,174.865082 
	C289.485260,175.954849 287.932068,176.758865 286.174866,177.827042 
	C284.575348,178.069199 283.179871,178.047180 281.369873,178.101044 
	C276.308380,176.726166 271.661346,175.275436 266.606262,173.819305 
	C266.140747,167.485565 266.193481,161.153778 265.995300,154.829819 
	C265.788940,148.244354 265.465271,141.655655 264.898376,135.093826 
	C264.776672,133.684952 263.487122,132.316513 262.569519,131.049698 
	C260.775360,128.572693 258.864166,126.180496 256.951721,123.390640 
	C261.884644,126.900497 266.690918,130.172073 266.281281,138.175522 
	C265.781891,147.932266 267.271454,157.799530 268.080902,167.604126 
	C268.189423,168.918228 269.048004,170.860489 270.074554,171.295303 
	C276.167206,173.876007 282.087128,178.127396 289.250061,174.451889 
	C289.602020,174.271255 290.177826,174.526871 290.843933,174.865082 
z"/>
<path fill="#F1F4F5" opacity="1.000000" stroke="none" 
	d="
M292.058868,213.158539 
	C292.498383,213.158081 292.937866,213.157623 293.938232,213.434967 
	C295.664764,213.518799 296.830444,213.324799 297.996094,213.130783 
	C297.996094,213.130783 298.436432,212.989502 299.100342,213.003174 
	C301.209686,213.003021 302.655090,212.989197 304.100525,212.975372 
	C306.082550,214.335022 308.125427,215.616577 310.018005,217.091064 
	C310.825623,217.720276 312.019196,219.059814 311.809509,219.536804 
	C311.379761,220.514465 310.219666,221.587357 309.185822,221.809692 
	C305.160614,222.675308 301.081635,223.070786 296.879272,220.121277 
	C294.288574,219.330734 292.113739,219.182465 289.938904,219.034195 
	C289.938904,219.034195 289.999329,219.005219 290.005859,218.670319 
	C290.694550,216.609787 291.376709,214.884171 292.058868,213.158539 
z"/>
<path fill="#3D3E57" opacity="1.000000" stroke="none" 
	d="
M55.781059,160.205109 
	C58.494984,160.410675 60.830978,160.682922 63.592232,160.950333 
	C66.286858,160.959595 68.561951,161.081757 70.824203,160.961716 
	C73.989708,160.793777 75.359245,162.166107 74.638794,165.765198 
	C74.124382,166.300537 73.952980,166.373108 73.374298,166.397278 
	C64.650551,166.577469 56.334080,166.806061 48.017612,167.034668 
	C48.011009,162.084671 51.630692,161.094803 55.781059,160.205109 
z"/>
<path fill="#D7F5FE" opacity="1.000000" stroke="none" 
	d="
M270.179565,213.229645 
	C271.513458,213.193283 272.847351,213.156921 274.578003,213.170502 
	C275.788605,214.785065 276.869934,216.273468 277.343597,217.935089 
	C277.850433,219.713242 278.453186,222.992523 277.852692,223.292618 
	C275.282623,224.576950 272.233582,225.676590 269.462585,225.468231 
	C268.013550,225.359299 266.585419,222.512100 265.545380,220.676361 
	C265.148071,219.975052 265.860931,218.644821 266.345215,217.021973 
	C267.808228,215.371704 268.993896,214.300674 270.179565,213.229645 
z"/>
<path fill="#283971" opacity="1.000000" stroke="none" 
	d="
M49.035713,179.489746 
	C49.366341,179.600174 49.866646,180.156830 49.918491,180.752487 
	C50.646881,189.120834 51.352512,197.491638 51.983051,205.867889 
	C52.414150,211.594742 58.355198,214.771835 65.303833,212.689163 
	C69.573334,211.409500 72.685043,209.220657 72.108856,203.812378 
	C71.811241,201.018814 72.712265,198.097565 73.446053,195.132263 
	C73.546768,199.126404 72.989082,203.228241 73.075233,207.316528 
	C73.171509,211.885178 70.580803,213.469315 66.763290,213.963303 
	C64.965897,214.195892 63.110283,213.931839 61.289356,214.036850 
	C50.610687,214.652710 51.226379,211.651443 50.205475,203.704468 
	C49.198421,195.865295 49.352314,187.876999 49.035713,179.489746 
z"/>
<path fill="#1AEFDF" opacity="1.000000" stroke="none" 
	d="
M64.615051,141.701309 
	C64.867477,140.598175 65.119904,139.495056 65.182281,138.202469 
	C68.428566,134.080917 71.864906,130.148834 75.698532,126.521713 
	C76.370506,128.196884 76.645210,129.567108 76.721695,131.069061 
	C76.272354,131.408813 76.090469,131.665833 75.741035,132.142029 
	C75.313438,132.851791 75.122643,133.391403 74.707245,134.115906 
	C74.294151,134.840744 74.105667,135.380676 73.646301,136.087372 
	C72.905373,137.155716 72.435333,138.057297 71.984695,138.975372 
	C72.004097,138.991852 71.957092,138.975418 71.740524,139.086731 
	C71.254265,139.403229 71.078293,139.670212 70.998032,139.999481 
	C71.000000,140.000000 70.998947,139.996078 70.773422,140.099762 
	C70.266991,140.406815 70.085632,140.677017 70.001465,141.006470 
	C69.999084,140.998886 70.014191,141.003754 69.784485,141.108459 
	C69.379158,141.492645 69.203529,141.772110 69.014206,142.026245 
	C69.000496,142.000916 69.051735,142.027176 68.816315,142.122589 
	C68.390099,142.490356 68.199295,142.762726 68.004730,143.015747 
	C68.000969,142.996414 68.034157,143.017746 67.649872,143.004410 
	C66.382065,142.561157 65.498558,142.131226 64.615051,141.701309 
z"/>
<path fill="#36D9CD" opacity="1.000000" stroke="none" 
	d="
M179.094299,117.723015 
	C178.411499,119.623642 177.697861,121.335083 176.616150,123.540245 
	C171.465195,127.748199 166.380966,124.688408 161.478439,124.492119 
	C158.926544,124.389938 156.432495,122.843803 154.068939,121.703178 
	C154.523163,121.200836 154.820740,120.945229 155.418167,120.955826 
	C160.739151,121.769661 165.761032,122.657738 170.780975,122.646881 
	C172.193436,122.643829 174.229446,120.231087 174.852234,118.514618 
	C175.653137,116.307236 175.318054,113.687683 175.472321,111.245682 
	C176.691696,110.537560 177.911072,109.829437 179.480988,109.070496 
	C179.561935,110.128014 179.292374,111.236351 178.704773,112.895538 
	C178.637741,114.291252 178.888733,115.136108 179.139740,115.980972 
	C179.139740,115.980972 179.051559,115.988846 179.032578,116.257523 
	C179.022339,116.734520 179.031067,116.942848 179.039810,117.151184 
	C179.039810,117.151184 179.063431,117.533829 179.094299,117.723015 
z"/>
<path fill="#39DDF4" opacity="1.000000" stroke="none" 
	d="
M144.278717,109.518631 
	C145.019897,109.318375 145.878250,109.482010 146.818100,110.309067 
	C146.916580,112.668320 146.933563,114.364143 146.947113,116.367386 
	C146.934128,117.085213 146.924606,117.495621 146.604797,117.976357 
	C145.870422,118.701981 145.446335,119.357285 145.013596,120.005791 
	C145.004944,119.998993 145.007675,120.018669 144.792130,120.118362 
	C144.305832,120.415947 144.146606,120.680885 144.081406,121.384026 
	C144.066544,122.498177 144.069214,123.241173 144.054016,124.241287 
	C144.047028,124.669907 144.057892,124.841393 144.057037,125.456085 
	C144.053528,128.266144 144.061752,130.632980 144.046616,133.467575 
	C144.032303,147.958160 144.041336,161.980988 144.038635,176.453369 
	C144.020386,179.601135 144.013870,182.299347 143.706116,184.999023 
	C143.004288,185.004517 142.603729,185.008530 142.203156,185.012527 
	C142.472992,163.699814 142.683609,142.386047 143.068512,121.075417 
	C143.136017,117.337677 143.934830,113.613144 144.278717,109.518631 
z"/>
<path fill="#7A7D9C" opacity="1.000000" stroke="none" 
	d="
M276.991943,62.440117 
	C278.398010,63.796764 279.793030,65.501587 281.401184,66.973564 
	C282.693604,68.156578 284.244171,69.057625 285.914520,70.251244 
	C288.444824,65.472672 290.771088,61.079372 293.218567,56.340492 
	C293.746277,56.287430 294.152802,56.579945 294.801849,56.950577 
	C293.719238,59.755013 292.394135,62.481335 290.762695,65.776062 
	C290.234711,67.807076 290.013031,69.269691 289.505890,70.846832 
	C288.761536,71.587433 288.302643,72.213516 287.483856,72.860291 
	C284.746033,71.859665 282.368103,70.838348 279.752197,69.575974 
	C278.975586,67.543907 278.437012,65.752922 277.898438,63.961926 
	C277.623260,63.537193 277.348114,63.112465 276.991943,62.440117 
z"/>
<path fill="#F1F4F5" opacity="1.000000" stroke="none" 
	d="
M160.123138,215.049820 
	C160.261932,217.902542 159.115021,219.345108 156.058670,219.007202 
	C151.793381,218.535645 147.326462,218.720856 144.611343,214.439468 
	C146.261551,214.028198 147.591400,214.001343 149.297638,214.001953 
	C151.462463,213.410675 153.250900,212.791962 155.354858,212.114288 
	C156.097244,212.064423 156.524124,212.073517 157.103210,212.359116 
	C158.211349,213.440369 159.167236,214.245087 160.123138,215.049820 
z"/>
<path fill="#7A7D9C" opacity="1.000000" stroke="none" 
	d="
M73.781586,166.445694 
	C73.952980,166.373108 74.124382,166.300537 74.571640,166.185303 
	C74.863647,169.733704 74.879784,173.324738 74.852631,177.357330 
	C74.569504,177.567230 74.329659,177.335617 73.954910,176.608826 
	C73.518776,175.710114 73.217560,175.306564 73.046867,174.657806 
	C73.438271,173.929016 73.699150,173.445450 73.886009,172.558655 
	C73.323357,171.784744 72.838654,171.097290 72.345467,171.091141 
	C65.380440,171.004501 58.413151,170.949921 51.449871,171.077072 
	C50.655659,171.091568 49.882347,172.250488 49.079498,173.230774 
	C49.066940,173.817734 49.074226,174.052689 49.101017,174.594177 
	C49.122704,175.510742 49.124889,176.120789 49.127075,176.730820 
	C49.103806,176.950592 49.080536,177.170380 49.000580,177.716721 
	C48.892338,175.256912 48.840782,172.470520 49.413967,169.348251 
	C57.195312,169.030930 64.366432,168.791946 71.501419,169.194046 
	C74.379654,169.356262 74.111687,168.262711 73.781586,166.445694 
z"/>
<path fill="#36D9CD" opacity="1.000000" stroke="none" 
	d="
M57.622501,122.990952 
	C58.029232,123.807991 58.112644,124.496620 57.851723,125.602562 
	C57.003983,126.676277 56.500568,127.332695 55.664703,127.891853 
	C54.250530,127.505669 53.168812,127.216736 52.125622,126.595917 
	C50.851505,124.770416 49.538860,123.276787 48.100250,121.573563 
	C47.756752,121.108139 47.488335,120.928230 47.005608,120.560394 
	C45.877628,119.522568 44.913071,118.748589 43.948517,117.974617 
	C50.104717,114.944298 53.359783,119.837997 57.622501,122.990952 
z"/>
<path fill="#ADADC8" opacity="1.000000" stroke="none" 
	d="
M73.374298,166.397278 
	C74.111687,168.262711 74.379654,169.356262 71.501419,169.194046 
	C64.366432,168.791946 57.195312,169.030930 49.578926,168.975586 
	C48.777309,168.492615 48.435478,168.046432 48.055630,167.317444 
	C56.334080,166.806061 64.650551,166.577469 73.374298,166.397278 
z"/>
<path fill="#39DDF4" opacity="1.000000" stroke="none" 
	d="
M57.967163,148.701233 
	C58.568535,150.123154 59.005562,151.293671 59.461475,152.456772 
	C60.525772,155.171967 59.784164,156.776184 56.330193,157.025208 
	C48.074284,158.095734 42.032372,154.181549 36.093796,149.366760 
	C35.997158,149.003128 36.089466,148.910080 36.438763,148.967941 
	C41.571259,150.989639 46.354458,152.953476 51.504326,154.957245 
	C52.607380,154.990585 53.343773,154.983994 54.080166,154.977417 
	C60.445076,154.069046 55.424366,150.151596 56.005791,147.337677 
	C56.611511,147.456940 57.211456,147.951691 57.967163,148.701233 
z"/>
<path fill="#D7F5FE" opacity="1.000000" stroke="none" 
	d="
M302.334045,174.952118 
	C301.195801,175.107666 300.438080,175.016998 299.314697,174.810394 
	C302.176575,171.493927 302.223083,167.478577 302.022827,163.314621 
	C301.700439,156.609985 301.273193,149.888657 301.476074,143.192123 
	C301.548248,140.809174 303.326996,138.477905 304.688416,136.074478 
	C304.364014,143.794968 303.548523,151.555527 303.037720,159.336121 
	C302.702332,164.444427 302.806976,169.581619 302.334045,174.952118 
z"/>
<path fill="#F1F4F5" opacity="1.000000" stroke="none" 
	d="
M171.880966,217.814056 
	C168.549271,217.386871 164.656982,219.895844 161.989670,215.155334 
	C162.016571,213.642319 162.055130,212.901749 162.396942,212.101440 
	C163.110703,212.007004 163.521240,211.972336 164.166534,212.212738 
	C165.949234,212.337921 167.497192,212.188034 169.290115,212.027313 
	C169.535095,212.016464 170.024841,212.042664 170.342957,212.071228 
	C171.084824,212.069977 171.508560,212.040146 171.932297,212.010315 
	C171.932297,212.010315 172.002487,212.003525 172.070526,212.267059 
	C172.325760,212.820984 172.591965,212.973083 172.937195,212.986893 
	C172.937195,212.986893 173.004013,212.988007 172.973663,213.378998 
	C172.589203,215.118027 172.235092,216.466034 171.880966,217.814056 
z"/>
<path fill="#61DFCF" opacity="1.000000" stroke="none" 
	d="
M155.188034,97.875473 
	C153.245224,97.951088 151.260010,98.308075 149.371521,98.023415 
	C147.472046,97.737099 145.668823,96.812370 143.645920,96.105362 
	C142.844101,97.488235 142.191605,98.613579 141.293640,99.983948 
	C134.789001,97.923706 135.497406,93.342278 137.517273,88.253075 
	C137.838455,90.816536 137.838455,93.564270 137.838455,97.634346 
	C141.723114,93.690308 144.872406,94.230103 148.402649,95.854340 
	C150.102188,96.636292 152.409317,96.097672 154.792175,96.314423 
	C155.158035,96.939682 155.173035,97.407578 155.188034,97.875473 
z"/>
<path fill="#1AF7E4" opacity="1.000000" stroke="none" 
	d="
M142.122086,185.217728 
	C142.603729,185.008530 143.004288,185.004517 143.974487,185.234589 
	C144.693527,186.647369 144.842957,187.826096 144.991730,189.432159 
	C144.991150,191.568298 144.991211,193.277084 144.659668,195.176361 
	C143.910080,197.023071 143.138672,198.682190 143.152161,200.334900 
	C143.175858,203.233643 143.680588,206.128464 143.638779,209.020782 
	C142.833817,209.024216 142.373871,209.031754 141.913940,209.039307 
	C141.913940,209.039307 141.990097,208.999298 141.994888,208.565826 
	C141.997055,200.708710 141.994431,193.285065 141.991806,185.861420 
	C141.991806,185.861420 142.041016,185.422928 142.122086,185.217728 
z"/>
<path fill="#D7F5FE" opacity="1.000000" stroke="none" 
	d="
M311.370392,120.954971 
	C311.660126,118.605553 312.901917,116.072372 312.795074,113.597389 
	C312.527130,107.389694 311.682709,101.204567 310.993927,95.018806 
	C310.797729,93.256699 310.342682,91.523407 310.021362,89.356873 
	C310.730560,90.498337 311.743927,91.997894 312.061096,93.632538 
	C313.166321,99.327744 314.591736,105.052330 314.769836,110.800621 
	C314.872040,114.098198 312.801117,117.463104 311.370392,120.954971 
z"/>
<path fill="#1AEFDF" opacity="1.000000" stroke="none" 
	d="
M85.069176,131.062027 
	C84.929817,131.644882 84.790459,132.227753 84.007736,132.941360 
	C82.080299,134.427658 80.916176,135.930130 79.481514,137.101212 
	C77.723579,138.536163 75.739243,139.693741 73.909897,140.599609 
	C73.987030,139.483597 74.007050,138.739182 74.009445,137.997192 
	C73.991821,137.999619 74.002625,138.034500 74.360703,138.073990 
	C76.401649,135.711685 78.084526,133.309891 80.049957,130.817108 
	C80.585876,130.213318 80.839241,129.700516 81.100861,129.134277 
	C81.109108,129.080872 81.213135,129.051483 81.546173,129.037079 
	C83.611542,128.655991 85.456413,128.113281 85.069176,131.062027 
z"/>
<path fill="#61DFCF" opacity="1.000000" stroke="none" 
	d="
M170.024841,212.042664 
	C170.024841,212.042664 169.535095,212.016464 169.046539,211.774261 
	C167.015900,211.667236 165.473831,211.802444 163.931763,211.937653 
	C163.521240,211.972336 163.110703,212.007004 162.048126,212.023987 
	C159.914383,212.031708 158.432678,212.057159 156.950989,212.082596 
	C156.524124,212.073517 156.097244,212.064423 154.950317,212.067902 
	C152.460587,212.711807 150.690918,213.343140 148.921249,213.974487 
	C147.591400,214.001343 146.261551,214.028198 144.534302,214.098267 
	C143.800919,213.645309 143.464935,213.149155 143.257446,212.238144 
	C143.598953,211.521484 143.811935,211.219666 144.439056,210.960785 
	C146.242752,211.010941 147.632309,211.018173 149.263153,211.035919 
	C149.504440,211.046448 149.985550,211.003616 150.372421,210.981110 
	C157.503494,210.657516 164.247681,210.356430 170.991882,210.055328 
	C170.978333,210.254272 170.964783,210.453186 170.723663,211.016479 
	C170.236206,211.528152 170.079132,211.748764 170.024841,212.042664 
z"/>
<path fill="#057F7B" opacity="1.000000" stroke="none" 
	d="
M30.838921,132.312561 
	C32.730377,134.265213 34.680210,136.165405 36.496063,138.185989 
	C38.150707,140.027206 39.659992,141.999054 41.197678,144.371338 
	C41.162014,144.829361 40.900669,145.095840 40.603889,144.946609 
	C35.980854,141.150513 31.654596,137.503632 27.096977,133.613327 
	C25.614878,132.927399 24.364138,132.484909 23.113398,132.042404 
	C23.068005,131.875946 23.022614,131.709473 23.434835,131.326035 
	C25.885176,131.510529 27.877901,131.911987 30.143929,132.366211 
	C30.582905,132.335388 30.748581,132.251801 30.880974,132.196762 
	C30.847689,132.225296 30.838923,132.312561 30.838921,132.312561 
z"/>
<path fill="#39DDF4" opacity="1.000000" stroke="none" 
	d="
M23.080315,132.420654 
	C24.364138,132.484909 25.614878,132.927399 26.790442,133.791016 
	C27.523258,136.185791 28.034653,138.360123 29.204350,140.089066 
	C31.289614,143.171326 33.772728,145.984421 36.089470,148.910080 
	C36.089466,148.910080 35.997158,149.003128 35.951088,149.049744 
	C29.312862,145.483353 25.575586,139.618011 23.080315,132.420654 
z"/>
<path fill="#2A6B7D" opacity="1.000000" stroke="none" 
	d="
M166.984879,70.149063 
	C170.345520,70.149063 173.706161,70.149063 177.398727,70.149063 
	C177.931152,67.878029 178.596756,65.038857 179.647842,62.115402 
	C178.477173,65.691750 178.457855,69.152512 180.804047,72.620956 
	C181.643158,73.861443 181.687622,75.639458 182.011581,77.560181 
	C179.643127,72.387657 174.406921,71.899147 168.931915,70.619949 
	C167.867279,70.376595 167.426071,70.262825 166.984879,70.149063 
z"/>
<path fill="#36D9CD" opacity="1.000000" stroke="none" 
	d="
M29.870628,132.313446 
	C27.877901,131.911987 25.885176,131.510529 23.502886,131.076324 
	C22.834244,130.304535 22.555166,129.565445 22.125116,128.426559 
	C28.764727,127.138214 34.188496,130.152817 39.957436,132.606567 
	C37.312218,132.664047 34.501785,132.387222 31.265141,132.211487 
	C30.838923,132.312561 30.847689,132.225296 30.805500,131.989227 
	C30.465752,131.939926 30.168190,132.126678 29.870628,132.313446 
z"/>
<path fill="#D5F6F9" opacity="1.000000" stroke="none" 
	d="
M277.548218,64.013275 
	C278.437012,65.752922 278.975586,67.543907 279.750061,69.957062 
	C280.040039,71.327713 280.094147,72.076210 280.148254,72.824707 
	C278.817261,71.670677 277.486328,70.516647 276.897369,70.005974 
	C273.148651,70.750206 269.978180,71.379646 266.379395,71.987297 
	C270.323730,70.219650 274.305511,67.917442 277.548218,64.013275 
z"/>
<path fill="#61DFCF" opacity="1.000000" stroke="none" 
	d="
M182.951309,93.218689 
	C182.486374,93.184036 182.021423,93.149391 180.941315,93.128891 
	C179.917969,93.441910 179.509781,93.740799 179.101593,94.039688 
	C179.101593,94.039688 179.041275,94.053680 178.739838,94.070251 
	C178.237350,94.083557 178.036270,94.080276 177.605743,93.901695 
	C177.273468,93.173248 177.170685,92.620110 177.067902,92.066971 
	C179.291824,91.761246 181.515518,91.453873 183.739761,91.150429 
	C185.025116,90.975060 186.311310,90.806007 187.597137,90.634117 
	C187.083145,89.541504 186.575760,88.445709 186.052444,87.357582 
	C185.776611,86.784050 185.472977,86.223885 185.183563,85.316010 
	C190.817734,87.824951 191.222000,90.503899 185.891220,93.908569 
	C184.482849,93.676826 183.717072,93.447754 182.951309,93.218689 
z"/>
<path fill="#39DDF4" opacity="1.000000" stroke="none" 
	d="
M73.852783,140.971237 
	C75.739243,139.693741 77.723579,138.536163 79.481514,137.101212 
	C80.916176,135.930130 82.080299,134.427658 83.718750,133.037689 
	C80.924484,137.939651 78.655609,143.774475 71.466278,144.591476 
	C72.007225,143.129410 72.930000,142.050323 73.852783,140.971237 
z"/>
<path fill="#D5F6F9" opacity="1.000000" stroke="none" 
	d="
M183.042068,93.602562 
	C183.717072,93.447754 184.482849,93.676826 185.540146,94.022339 
	C186.113388,96.195663 186.677704,98.261070 186.615891,100.307564 
	C186.499756,104.152641 184.813171,107.029549 180.322845,107.905380 
	C184.678009,104.127930 185.106674,99.330864 183.042068,93.602562 
z"/>
<path fill="#057F7B" opacity="1.000000" stroke="none" 
	d="
M73.909889,140.599609 
	C72.930000,142.050323 72.007225,143.129410 71.092056,144.526855 
	C69.666954,145.816620 68.234238,146.788055 66.521896,147.922089 
	C65.437202,147.204376 64.632149,146.324066 64.275513,145.197571 
	C65.827339,144.306824 66.930748,143.662277 68.034157,143.017746 
	C68.034157,143.017746 68.000969,142.996414 68.244133,142.924042 
	C68.675446,142.576828 68.863586,142.302002 69.051735,142.027176 
	C69.051735,142.027176 69.000496,142.000916 69.241608,141.919342 
	C69.659874,141.559769 69.837036,141.281769 70.014191,141.003754 
	C70.014191,141.003754 69.999084,140.998886 70.233261,140.910339 
	C70.644608,140.546555 70.821777,140.271317 70.998947,139.996078 
	C70.998947,139.996078 71.000000,140.000000 71.231537,139.908203 
	C71.627739,139.536072 71.792412,139.255753 71.957092,138.975418 
	C71.957092,138.975418 72.004097,138.991852 72.247414,138.852264 
	C73.002846,138.473373 73.514961,138.234070 74.027077,137.994781 
	C74.007050,138.739182 73.987030,139.483597 73.909889,140.599609 
z"/>
<path fill="#283971" opacity="1.000000" stroke="none" 
	d="
M289.839722,37.711021 
	C283.962036,37.901939 277.691925,37.141880 272.274048,41.927525 
	C274.036316,40.292519 275.963745,37.661911 278.325653,37.185600 
	C281.918976,36.460960 285.813416,37.229397 289.839722,37.711021 
z"/>
<path fill="#057F7B" opacity="1.000000" stroke="none" 
	d="
M80.968323,124.909668 
	C81.994766,123.898438 82.920319,122.749382 84.070595,121.907318 
	C85.931953,120.544731 87.753571,119.894760 87.548019,123.667648 
	C85.067101,125.349747 83.024872,126.684891 80.936157,127.630638 
	C80.915886,126.464050 80.942101,125.686859 80.968323,124.909668 
z"/>
<path fill="#39DDF4" opacity="1.000000" stroke="none" 
	d="
M141.606506,186.085785 
	C141.994431,193.285065 141.997055,200.708710 141.980057,208.606186 
	C141.637802,204.616135 141.204071,200.156570 141.030563,195.686890 
	C140.909515,192.568481 141.144974,189.436234 141.606506,186.085785 
z"/>
<path fill="#36D9CD" opacity="1.000000" stroke="none" 
	d="
M80.982651,128.020035 
	C83.024872,126.684891 85.067101,125.349747 87.454330,124.055260 
	C87.103416,126.314583 86.407486,128.533264 85.390366,130.906982 
	C85.456413,128.113281 83.611542,128.655991 81.513748,128.766479 
	C81.103996,128.334366 81.059700,128.158463 81.007195,127.991829 
	C80.998978,128.001114 80.982651,128.020035 80.982651,128.020035 
z"/>
<path fill="#39DDF4" opacity="1.000000" stroke="none" 
	d="
M269.790619,213.156158 
	C268.993896,214.300674 267.808228,215.371704 266.405243,216.643875 
	C265.496704,215.385345 264.980408,213.805145 264.075867,212.492477 
	C262.456696,210.142700 263.402618,208.594559 265.652649,207.060364 
	C265.329651,209.985931 264.471741,213.145844 269.790619,213.156158 
z"/>
<path fill="#D7F5FE" opacity="1.000000" stroke="none" 
	d="
M307.889343,80.681122 
	C305.901855,78.582924 303.990295,76.118385 302.055298,73.294937 
	C304.009674,75.395622 305.987457,77.855202 307.889343,80.681122 
z"/>
<path fill="#C7FAFC" opacity="1.000000" stroke="none" 
	d="
M289.791382,70.732315 
	C290.013031,69.269691 290.234711,67.807076 290.780762,66.144852 
	C292.666992,66.740379 294.228851,67.535522 295.908295,68.652527 
	C294.528870,69.863762 293.031830,70.753143 290.994598,71.689682 
	C290.233398,71.402000 290.012390,71.067154 289.791382,70.732315 
z"/>
<path fill="#283971" opacity="1.000000" stroke="none" 
	d="
M271.644470,42.124397 
	C271.933075,45.379002 271.911469,48.825970 271.926758,52.667068 
	C265.918579,49.821571 270.607147,45.953125 271.644470,42.124397 
z"/>
<path fill="#36D9CD" opacity="1.000000" stroke="none" 
	d="
M80.591301,124.933655 
	C80.942101,125.686859 80.915886,126.464050 80.936157,127.630638 
	C80.982651,128.020035 80.998978,128.001114 80.677322,127.961334 
	C79.262314,128.970657 78.168968,130.019775 77.037209,131.035400 
	C76.998795,131.001892 76.919907,130.937317 76.919907,130.937317 
	C76.645210,129.567108 76.370506,128.196884 76.038422,126.477539 
	C77.392120,125.738144 78.803200,125.347900 80.591301,124.933655 
z"/>
<path fill="#057F7B" opacity="1.000000" stroke="none" 
	d="
M52.087097,126.927803 
	C53.168812,127.216736 54.250530,127.505669 55.945511,128.104584 
	C57.854191,128.954498 59.149605,129.494431 60.445019,130.034363 
	C59.536381,130.352524 58.627743,130.670685 57.428604,130.983505 
	C56.939060,130.691833 56.740017,130.405518 56.011978,129.941757 
	C54.772457,129.435059 54.061932,129.105789 53.182762,128.549194 
	C52.671593,127.885681 52.329067,127.449486 52.011166,126.991318 
	C52.035789,126.969337 52.087097,126.927803 52.087097,126.927803 
z"/>
<path fill="#39DDF4" opacity="1.000000" stroke="none" 
	d="
M53.351406,128.776520 
	C54.061932,129.105789 54.772457,129.435059 55.756676,129.871719 
	C54.835922,130.305374 53.545380,131.079941 52.470276,130.849472 
	C50.975945,130.529160 49.643135,129.455353 48.112015,128.360367 
	C47.982841,128.016647 48.041412,127.956055 48.426765,127.961334 
	C50.325214,128.236588 51.838310,128.506561 53.351406,128.776520 
z"/>
<path fill="#C7FAFC" opacity="1.000000" stroke="none" 
	d="
M157.103210,212.359116 
	C158.432678,212.057159 159.914383,212.031708 161.744873,212.083740 
	C162.055130,212.901749 162.016571,213.642319 161.959808,214.754364 
	C161.538330,215.088486 161.135086,215.051117 160.427490,215.031784 
	C159.167236,214.245087 158.211349,213.440369 157.103210,212.359116 
z"/>
<path fill="#39DDF4" opacity="1.000000" stroke="none" 
	d="
M43.936317,124.063004 
	C42.979301,122.304550 42.022289,120.546097 41.392586,118.563751 
	C42.466957,118.949455 43.214016,119.559052 43.978546,120.545364 
	C44.012165,121.934433 44.028320,122.946793 44.017345,123.985016 
	C43.990219,124.010895 43.936317,124.063004 43.936317,124.063004 
z"/>
<path fill="#D5F6F9" opacity="1.000000" stroke="none" 
	d="
M261.639587,75.068268 
	C260.829376,76.873062 259.691711,78.790749 258.232056,80.834595 
	C259.044098,79.034218 260.178101,77.107689 261.639587,75.068268 
z"/>
<path fill="#39DDF4" opacity="1.000000" stroke="none" 
	d="
M56.004288,146.650635 
	C54.688797,145.560562 53.340389,144.129974 52.006145,142.330505 
	C53.337330,143.411118 54.654350,144.860611 56.004288,146.650635 
z"/>
<path fill="#C7FAFC" opacity="1.000000" stroke="none" 
	d="
M291.730469,213.049225 
	C291.376709,214.884171 290.694550,216.609787 289.988739,218.699112 
	C289.756042,217.133026 289.547028,215.203247 289.681396,213.068832 
	C290.483887,212.889435 290.942963,212.914673 291.730469,213.049225 
z"/>
<path fill="#057F7B" opacity="1.000000" stroke="none" 
	d="
M43.961075,120.168648 
	C43.214016,119.559052 42.466957,118.949455 41.467155,118.199417 
	C41.931889,117.977814 42.649368,117.896652 43.657684,117.895050 
	C44.913071,118.748589 45.877628,119.522568 46.867805,120.713760 
	C46.893425,121.130974 46.620270,121.439903 46.359680,121.302612 
	C45.386421,120.833099 44.673748,120.500877 43.961075,120.168648 
z"/>
<path fill="#39DDF4" opacity="1.000000" stroke="none" 
	d="
M47.953445,128.046844 
	C46.620232,126.970360 45.316410,125.863670 43.974453,124.409996 
	C43.936317,124.063004 43.990219,124.010895 44.358707,124.021461 
	C45.831936,125.340034 46.936676,126.648041 48.041412,127.956055 
	C48.041412,127.956055 47.982841,128.016647 47.953445,128.046844 
z"/>
<path fill="#D7F5FE" opacity="1.000000" stroke="none" 
	d="
M306.357666,129.945068 
	C307.124664,128.335785 308.251038,126.707588 309.717407,125.054466 
	C308.943970,126.661736 307.830505,128.293945 306.357666,129.945068 
z"/>
<path fill="#C7FAFC" opacity="1.000000" stroke="none" 
	d="
M172.239136,217.878448 
	C172.235092,216.466034 172.589203,215.118027 172.973389,213.412415 
	C174.263092,214.800095 176.721146,216.644943 172.239136,217.878448 
z"/>
<path fill="#C7FAFC" opacity="1.000000" stroke="none" 
	d="
M304.039124,212.640427 
	C302.655090,212.989197 301.209686,213.003021 299.330261,212.978485 
	C300.307190,212.286987 301.718109,211.633865 303.474487,210.966431 
	C303.872498,211.403244 303.925110,211.854355 304.039124,212.640427 
z"/>
<path fill="#D5F6F9" opacity="1.000000" stroke="none" 
	d="
M265.632385,71.979813 
	C264.876434,72.967041 263.784760,73.985634 262.324219,74.985542 
	C263.069153,73.981628 264.182892,72.996391 265.632385,71.979813 
z"/>
<path fill="#C7FAFC" opacity="1.000000" stroke="none" 
	d="
M290.116394,219.408997 
	C292.113739,219.182465 294.288574,219.330734 296.711151,219.786942 
	C294.737213,219.991196 292.515564,219.887512 290.116394,219.408997 
z"/>
<path fill="#39DDF4" opacity="1.000000" stroke="none" 
	d="
M266.142151,201.284882 
	C266.652771,202.461792 267.077759,204.018219 267.217896,205.793152 
	C266.640869,204.562561 266.348694,203.113480 266.142151,201.284882 
z"/>
<path fill="#39DDF4" opacity="1.000000" stroke="none" 
	d="
M144.024902,210.917847 
	C143.811935,211.219666 143.598953,211.521484 143.138351,211.956329 
	C142.591782,211.303116 142.292816,210.516907 141.953888,209.384995 
	C142.373871,209.031754 142.833817,209.024216 143.652130,209.336365 
	C144.015320,210.076660 144.020111,210.497253 144.024902,210.917847 
z"/>
<path fill="#39DDF4" opacity="1.000000" stroke="none" 
	d="
M48.929295,138.669098 
	C48.059689,138.535385 47.075119,138.093948 46.059288,137.296875 
	C46.956799,137.414627 47.885563,137.888000 48.929295,138.669098 
z"/>
<path fill="#D7F5FE" opacity="1.000000" stroke="none" 
	d="
M305.383362,135.871979 
	C305.104858,134.556198 305.179321,133.064987 305.486694,131.285187 
	C305.725189,132.563263 305.730743,134.129898 305.383362,135.871979 
z"/>
<path fill="#D7F5FE" opacity="1.000000" stroke="none" 
	d="
M308.896240,85.643433 
	C308.546448,84.889687 308.280060,83.760300 308.026825,82.265656 
	C308.353210,83.022873 308.666412,84.145332 308.896240,85.643433 
z"/>
<path fill="#D7F5FE" opacity="1.000000" stroke="none" 
	d="
M310.368042,124.925766 
	C310.132996,124.187401 310.234375,123.321999 310.568298,122.221695 
	C310.768738,122.924095 310.736633,123.861412 310.368042,124.925766 
z"/>
<path fill="#39DDF4" opacity="1.000000" stroke="none" 
	d="
M50.958740,140.691132 
	C50.389614,140.524307 49.728592,140.072510 49.044140,139.287491 
	C49.636089,139.438232 50.251461,139.922195 50.958740,140.691132 
z"/>
<path fill="#36D9CD" opacity="1.000000" stroke="none" 
	d="
M43.021919,134.644348 
	C42.448841,134.549026 41.768314,134.164642 41.010517,133.470062 
	C41.593651,133.558350 42.254059,133.956818 43.021919,134.644348 
z"/>
<path fill="#D5F6F9" opacity="1.000000" stroke="none" 
	d="
M257.620483,81.058243 
	C257.788177,81.812820 257.628235,82.703308 257.178284,83.782570 
	C257.023163,83.045609 257.158020,82.119881 257.620483,81.058243 
z"/>
<path fill="#2EE2F4" opacity="1.000000" stroke="none" 
	d="
M179.072754,115.617508 
	C178.888733,115.136108 178.637741,114.291252 178.622864,113.248978 
	C178.907913,113.785721 178.956848,114.519890 179.072754,115.617508 
z"/>
<path fill="#C7FAFC" opacity="1.000000" stroke="none" 
	d="
M170.342957,212.071228 
	C170.079132,211.748764 170.236206,211.528152 170.690994,211.313782 
	C170.885925,211.246689 171.332458,211.304626 171.556763,211.300797 
	C171.781067,211.296967 171.916473,211.640945 171.924377,211.825623 
	C171.508560,212.040146 171.084824,212.069977 170.342957,212.071228 
z"/>
<path fill="#D7F5FE" opacity="1.000000" stroke="none" 
	d="
M300.912476,71.680260 
	C300.441406,71.816956 299.868927,71.655945 299.151306,71.223785 
	C299.607788,71.095932 300.209381,71.239243 300.912476,71.680260 
z"/>
<path fill="#D7F5FE" opacity="1.000000" stroke="none" 
	d="
M310.032959,88.658630 
	C309.732941,88.494652 309.391022,88.010643 309.040833,87.210373 
	C309.352081,87.375610 309.671539,87.857101 310.032959,88.658630 
z"/>
<path fill="#2A6B7D" opacity="1.000000" stroke="none" 
	d="
M180.263718,61.871819 
	C180.155502,61.505989 180.280273,60.986423 180.616821,60.302177 
	C180.717972,60.664360 180.607346,61.191216 180.263718,61.871819 
z"/>
<path fill="#C7FAFC" opacity="1.000000" stroke="none" 
	d="
M172.895111,212.741791 
	C172.591965,212.973083 172.325760,212.820984 172.073380,212.302200 
	C172.382660,212.029266 172.664261,212.170227 172.895111,212.741791 
z"/>
<path fill="#C7FAFC" opacity="1.000000" stroke="none" 
	d="
M296.999512,69.720917 
	C296.787018,69.803017 296.496155,69.629135 296.112427,69.212250 
	C296.320129,69.134468 296.620605,69.299698 296.999512,69.720917 
z"/>
<path fill="#39DDF4" opacity="1.000000" stroke="none" 
	d="
M44.978745,135.704712 
	C44.716068,135.955994 44.427242,135.823471 44.048229,135.379013 
	C44.237617,135.264938 44.569138,135.349548 44.978745,135.704712 
z"/>
<path fill="#283971" opacity="1.000000" stroke="none" 
	d="
M272.050171,53.244873 
	C272.276337,53.109184 272.541962,53.291374 272.845917,53.790573 
	C272.614441,53.933231 272.349579,53.751621 272.050171,53.244873 
z"/>
<path fill="#39DDF4" opacity="1.000000" stroke="none" 
	d="
M45.984509,136.727478 
	C45.773010,136.800476 45.484577,136.617981 45.107681,136.188293 
	C45.315338,136.118073 45.611458,136.295029 45.984509,136.727478 
z"/>
<path fill="#D7F5FE" opacity="1.000000" stroke="none" 
	d="
M301.993469,72.718254 
	C301.780945,72.803116 301.491852,72.633331 301.110779,72.223282 
	C301.318176,72.143204 301.617554,72.303406 301.993469,72.718254 
z"/>
<path fill="#39DDF4" opacity="1.000000" stroke="none" 
	d="
M51.976383,141.730148 
	C51.761017,141.803528 51.479340,141.616348 51.104965,141.186798 
	C51.311535,141.119492 51.610806,141.294540 51.976383,141.730148 
z"/>
<path fill="#39DDF4" opacity="1.000000" stroke="none" 
	d="
M266.735016,206.012390 
	C266.808258,206.227402 266.620056,206.517838 266.182861,206.901306 
	C266.113770,206.692154 266.293671,206.389999 266.735016,206.012390 
z"/>
<path fill="#2EE2F4" opacity="1.000000" stroke="none" 
	d="
M179.288971,117.043091 
	C179.031067,116.942848 179.022339,116.734520 179.035248,116.213333 
	C179.217285,116.245323 179.377701,116.590164 179.288971,117.043091 
z"/>
<path fill="#61DFCF" opacity="1.000000" stroke="none" 
	d="
M292.176819,122.055023 
	C292.122772,122.481644 292.068756,122.908264 291.760742,123.915802 
	C291.013458,126.311356 290.520142,128.125992 289.941528,129.718109 
	C289.697266,129.189865 289.447723,129.009644 289.107544,128.954926 
	C289.051880,128.523178 288.996185,128.091415 288.955872,126.875931 
	C288.660980,120.719704 288.350800,115.347206 288.040588,109.974709 
	C288.040161,109.236504 288.039734,108.498291 288.065430,106.930359 
	C288.132904,101.711136 288.174255,97.321640 288.517242,92.940834 
	C289.421265,92.943443 290.023651,92.937378 290.626038,92.931313 
	C290.787231,94.310974 290.948425,95.690636 291.080994,97.933273 
	C291.368042,101.876114 291.683746,104.955986 291.999451,108.035858 
	C292.020935,108.768806 292.042389,109.501747 292.045105,111.054436 
	C292.076508,115.267792 292.126648,118.661407 292.176819,122.055023 
z"/>
<path fill="#D5F6F9" opacity="1.000000" stroke="none" 
	d="
M288.215607,92.932152 
	C288.174255,97.321640 288.132904,101.711136 288.015869,106.564201 
	C287.063843,106.266792 285.302399,105.217613 285.442444,104.787544 
	C288.020660,96.868996 285.836945,89.833679 282.173187,82.818344 
	C281.098602,80.760765 281.370819,77.999855 281.345001,75.397987 
	C282.774323,77.156654 283.884430,79.078636 285.038025,81.367760 
	C286.126221,85.467323 287.170898,89.199738 288.215607,92.932152 
z"/>
<path fill="#D5F6F9" opacity="1.000000" stroke="none" 
	d="
M288.792542,129.226120 
	C289.447723,129.009644 289.697266,129.189865 289.932861,130.100189 
	C290.682678,131.801865 291.355774,132.898926 292.028900,133.996002 
	C291.682587,136.902603 291.098175,139.804214 291.037415,142.716782 
	C290.891876,149.692673 291.003967,156.673737 290.984497,163.652634 
	C290.980530,165.080826 290.855988,166.508682 290.451355,167.919571 
	C289.966919,159.529877 289.455780,151.141617 289.008881,142.749939 
	C288.773804,138.335480 288.651001,133.915054 288.792542,129.226120 
z"/>
<path fill="#36D9CD" opacity="1.000000" stroke="none" 
	d="
M288.517242,92.940834 
	C287.170898,89.199738 286.126221,85.467323 285.095825,81.316055 
	C285.110077,80.897209 285.224457,80.792542 285.518738,80.911926 
	C286.694916,81.804474 287.576752,82.577629 288.441193,83.335526 
	C289.009613,81.651962 289.465546,80.301590 290.025818,79.160431 
	C290.284271,79.649109 290.500763,79.866386 290.813171,80.349754 
	C290.823425,81.116791 290.800140,81.555557 290.596710,82.154587 
	C290.514008,82.874168 290.611450,83.433487 290.752869,84.375648 
	C290.896545,85.521599 290.996307,86.284698 291.096008,87.047806 
	C291.003998,88.734756 290.911957,90.421715 290.722961,92.519989 
	C290.023651,92.937378 289.421265,92.943443 288.517242,92.940834 
z"/>
<path fill="#36D9CD" opacity="1.000000" stroke="none" 
	d="
M285.052307,80.948914 
	C283.884430,79.078636 282.774323,77.156654 281.395660,75.026688 
	C281.127075,74.818687 281.042145,74.390259 280.933441,73.952911 
	C280.722198,73.150887 280.482727,72.947121 280.106323,72.904266 
	C280.106323,72.904266 280.123474,72.864258 280.135864,72.844482 
	C280.094147,72.076210 280.040039,71.327713 279.988068,70.198128 
	C282.368103,70.838348 284.746033,71.859665 287.831787,72.915466 
	C289.234406,72.989639 289.929138,73.029320 290.623901,73.069008 
	C290.753448,73.513153 290.883026,73.957291 290.992218,74.670425 
	C290.971832,74.939430 290.721008,74.950050 290.554108,75.101685 
	C290.195984,75.492149 290.044952,75.754166 289.595856,75.863800 
	C287.648682,75.481560 286.039795,75.274879 283.927948,75.003586 
	C284.476318,77.452095 284.850403,79.122322 285.224457,80.792542 
	C285.224457,80.792542 285.110077,80.897209 285.052307,80.948914 
z"/>
<path fill="#D5F6F9" opacity="1.000000" stroke="none" 
	d="
M287.735474,110.259132 
	C288.350800,115.347206 288.660980,120.719704 288.892700,126.555527 
	C288.122559,125.113113 286.929077,123.228447 286.847992,121.297058 
	C286.698090,117.727005 287.199951,114.129585 287.735474,110.259132 
z"/>
<path fill="#CA7283" opacity="1.000000" stroke="none" 
	d="
M303.982544,128.983994 
	C303.238190,129.348526 302.614685,129.377884 301.991211,129.407242 
	C301.991211,126.794945 301.991211,124.182648 301.991211,121.497871 
	C307.091919,122.741692 307.536865,124.495407 303.982544,128.983994 
z"/>
<path fill="#F1F4F5" opacity="1.000000" stroke="none" 
	d="
M301.002441,107.319496 
	C301.424835,105.032738 301.847046,103.189384 302.269287,101.346024 
	C302.651917,101.446358 303.034515,101.546692 303.417114,101.647026 
	C303.093872,106.845284 302.770599,112.043541 302.447327,117.241798 
	C301.965668,117.242699 301.483978,117.243591 301.002319,117.244492 
	C301.002319,114.083961 301.002319,110.923424 301.002441,107.319496 
z"/>
<path fill="#C7FAFC" opacity="1.000000" stroke="none" 
	d="
M292.292236,107.751923 
	C291.683746,104.955986 291.368042,101.876114 291.141724,98.348206 
	C291.682404,101.089447 292.133698,104.278717 292.292236,107.751923 
z"/>
<path fill="#C7FAFC" opacity="1.000000" stroke="none" 
	d="
M292.484009,121.840363 
	C292.126648,118.661407 292.076508,115.267792 292.101868,111.416992 
	C294.686890,114.382469 294.731598,117.946968 292.484009,121.840363 
z"/>
<path fill="#C7FAFC" opacity="1.000000" stroke="none" 
	d="
M291.465759,86.948265 
	C290.996307,86.284698 290.896545,85.521599 290.852356,84.049698 
	C290.864197,82.892036 290.820526,82.443184 290.776855,81.994324 
	C290.800140,81.555557 290.823425,81.116791 290.899597,79.932343 
	C290.875336,77.774452 290.798157,76.362251 290.721008,74.950050 
	C290.721008,74.950050 290.971832,74.939430 291.077209,75.008171 
	C291.400208,79.000847 291.617859,82.924789 291.465759,86.948265 
z"/>
<path fill="#C7FAFC" opacity="1.000000" stroke="none" 
	d="
M292.030212,133.578583 
	C291.355774,132.898926 290.682678,131.801865 290.018188,130.322693 
	C290.520142,128.125992 291.013458,126.311356 291.769379,124.238564 
	C292.031860,127.040657 292.031708,130.100906 292.030212,133.578583 
z"/>
<path fill="#61DFCF" opacity="1.000000" stroke="none" 
	d="
M290.743652,72.824196 
	C289.929138,73.029320 289.234406,72.989639 288.191711,72.894775 
	C288.302643,72.213516 288.761536,71.587433 289.505920,70.846832 
	C290.012390,71.067154 290.233398,71.402000 290.711426,71.890709 
	C290.933441,72.222839 290.898407,72.401108 290.743652,72.824196 
z"/>
<path fill="#D5F6F9" opacity="1.000000" stroke="none" 
	d="
M280.132935,73.139084 
	C280.482727,72.947121 280.722198,73.150887 280.823303,73.764343 
	C280.508057,73.896439 280.287292,73.683365 280.132935,73.139084 
z"/>
<path fill="#ADADC8" opacity="1.000000" stroke="none" 
	d="
M166.766754,70.093567 
	C167.426071,70.262825 167.867279,70.376595 168.515991,70.563538 
	C167.445724,73.145058 165.987198,75.580292 164.935471,78.180077 
	C163.592972,81.498558 162.094360,81.184372 159.818375,79.045372 
	C157.022614,76.417870 153.987564,74.044998 150.883179,71.349045 
	C152.048096,71.046738 153.385788,70.957451 155.411224,71.010704 
	C161.361816,78.497231 162.046188,80.209229 166.113266,69.923691 
	C166.113266,69.923691 166.548630,70.038063 166.766754,70.093567 
z"/>
<path fill="#057F7B" opacity="1.000000" stroke="none" 
	d="
M155.491302,97.905151 
	C155.173035,97.407578 155.158035,96.939682 155.126984,96.116127 
	C155.133682,90.509789 157.376617,88.268730 162.773254,89.851196 
	C164.301437,90.299316 166.011322,90.127815 167.627716,90.579338 
	C167.098007,90.994934 166.578445,91.071678 165.708099,91.111984 
	C164.890091,91.087479 164.422852,91.099403 163.522919,91.062668 
	C161.105942,91.587059 159.121658,92.160103 157.188782,93.099510 
	C157.164047,94.935677 157.087891,96.405487 157.011719,97.875290 
	C156.606003,97.895142 156.200287,97.914986 155.491302,97.905151 
z"/>
<path fill="#283971" opacity="1.000000" stroke="none" 
	d="
M166.058884,91.148415 
	C166.578445,91.071678 167.098007,90.994934 167.990448,90.782829 
	C169.938980,90.698883 171.514618,90.750298 173.786362,90.915115 
	C174.686523,91.006325 174.890594,90.984138 175.094650,90.961945 
	C175.630127,91.173935 176.165588,91.385918 176.884491,91.832443 
	C177.170685,92.620110 177.273468,93.173248 177.542114,94.258286 
	C177.724518,95.513969 177.741089,96.237740 177.757645,96.961517 
	C177.266449,97.328026 176.775269,97.694550 175.952438,97.697571 
	C175.092926,95.922668 174.565063,94.511253 173.784363,92.798309 
	C171.040649,92.047325 168.549774,91.597870 166.058884,91.148415 
z"/>
<path fill="#057F7B" opacity="1.000000" stroke="none" 
	d="
M174.969177,90.832733 
	C174.890594,90.984138 174.686523,91.006325 174.183411,90.955017 
	C174.204147,90.822182 174.523926,90.762856 174.969177,90.832733 
z"/>
<path fill="#ADADC8" opacity="1.000000" stroke="none" 
	d="
M49.580513,176.785797 
	C49.124889,176.120789 49.122704,175.510742 49.509018,174.562317 
	C57.570454,174.450302 65.243393,174.676666 72.916336,174.903015 
	C73.217560,175.306564 73.518776,175.710114 73.878647,176.366928 
	C65.969513,176.693726 58.001732,176.767258 49.580513,176.785797 
z"/>
<path fill="#EDBCBF" opacity="1.000000" stroke="none" 
	d="
M166.100525,69.546753 
	C162.046188,80.209229 161.361816,78.497231 155.764954,70.974876 
	C159.040939,66.449989 158.835480,62.157764 154.514923,57.739529 
	C158.346313,55.096394 161.759888,52.741505 165.140137,50.409592 
	C166.487030,51.322433 167.970917,52.061489 169.108566,53.159336 
	C170.990250,54.975132 173.184692,56.390152 170.087173,59.679092 
	C167.881577,62.020981 167.360596,65.949417 166.100525,69.546753 
z"/>
<path fill="#F1F4F5" opacity="1.000000" stroke="none" 
	d="
M175.117920,111.123917 
	C175.318054,113.687683 175.653137,116.307236 174.852234,118.514618 
	C174.229446,120.231087 172.193436,122.643829 170.780975,122.646881 
	C165.761032,122.657738 160.739151,121.769661 155.404099,120.560638 
	C154.662323,117.175766 154.234451,114.452293 153.806580,111.728821 
	C160.792221,111.486603 167.777863,111.244377 175.117920,111.123917 
z"/>
<path fill="#F1F4F5" opacity="1.000000" stroke="none" 
	d="
M174.037201,93.099838 
	C174.565063,94.511253 175.092926,95.922668 175.639221,97.711678 
	C171.523499,101.252403 167.021133,100.300697 162.522003,99.240349 
	C160.941605,98.867889 159.384109,98.398331 157.413940,97.924194 
	C157.087891,96.405487 157.164047,94.935677 157.497040,92.965393 
	C158.624619,92.403847 159.495346,92.342789 160.502487,92.684166 
	C162.482208,95.153702 171.333298,96.452011 173.203217,94.849121 
	C173.651581,94.464775 173.768082,93.693283 174.037201,93.099838 
z"/>
<path fill="#1AF7E4" opacity="1.000000" stroke="none" 
	d="
M153.460236,111.516907 
	C154.234451,114.452293 154.662323,117.175766 155.104263,120.294434 
	C154.820740,120.945229 154.523163,121.200836 153.692474,121.627022 
	C152.774673,120.154701 152.483139,118.482437 151.977280,116.877731 
	C151.530426,115.460236 150.844650,114.118065 150.264374,112.742645 
	C149.159775,113.848427 148.055161,114.954201 146.950562,116.059982 
	C146.933563,114.364143 146.916580,112.668320 146.911072,110.633713 
	C148.986328,110.631630 151.050110,110.968315 153.460236,111.516907 
z"/>
<path fill="#D5F6F9" opacity="1.000000" stroke="none" 
	d="
M178.050858,96.797249 
	C177.741089,96.237740 177.724518,95.513969 177.771576,94.433594 
	C178.036270,94.080276 178.237350,94.083557 178.740082,94.101204 
	C178.809174,94.954712 178.576614,95.793846 178.050858,96.797249 
z"/>
<path fill="#D5F6F9" opacity="1.000000" stroke="none" 
	d="
M179.356705,94.009476 
	C179.509781,93.740799 179.917969,93.441910 180.594070,93.178726 
	C180.445267,93.469376 180.028534,93.724319 179.356705,94.009476 
z"/>
<path fill="#7A7D9C" opacity="1.000000" stroke="none" 
	d="
M293.171265,55.531166 
	C293.172028,55.603878 292.795197,55.591537 292.795197,55.591537 
	C292.795197,55.591537 292.855316,55.302017 292.995636,55.309608 
	C293.135956,55.317196 293.170502,55.458458 293.171265,55.531166 
z"/>
<path fill="#05FCDC" opacity="1.000000" stroke="none" 
	d="
M146.947113,116.367386 
	C148.055161,114.954201 149.159775,113.848427 150.264374,112.742645 
	C150.844650,114.118065 151.530426,115.460236 151.977280,116.877731 
	C152.483139,118.482437 152.774673,120.154701 153.535843,121.873756 
	C156.432495,122.843803 158.926544,124.389938 161.478439,124.492119 
	C166.380966,124.688408 171.465195,127.748199 176.620087,123.947823 
	C177.767334,125.727776 178.542603,127.593864 179.033401,128.775269 
	C178.413116,132.958191 177.999924,136.754547 177.261932,140.486664 
	C176.126328,146.229721 174.628189,151.902573 173.551529,157.655304 
	C172.797531,161.684052 172.049805,165.798462 172.069427,169.870911 
	C172.118774,180.116898 172.740021,190.359634 172.828827,200.606293 
	C172.853912,203.503189 171.833878,206.409134 171.142517,209.683136 
	C164.247681,210.356430 157.503494,210.657516 150.289200,210.811127 
	C149.553360,210.784241 149.287628,210.904831 149.021881,211.025406 
	C147.632309,211.018173 146.242752,211.010941 144.439041,210.960785 
	C144.020111,210.497253 144.015320,210.076660 143.997162,209.340485 
	C143.680588,206.128464 143.175858,203.233643 143.152161,200.334900 
	C143.138672,198.682190 143.910080,197.023071 144.937057,195.382217 
	C146.690674,196.300018 147.835312,197.202438 148.979935,198.104858 
	C149.469238,197.644470 149.958527,197.184097 150.447815,196.723709 
	C148.629349,194.150742 146.810867,191.577774 144.992371,189.004807 
	C144.842957,187.826096 144.693527,186.647369 144.275726,185.233109 
	C144.013870,182.299347 144.020386,179.601135 144.324158,176.151703 
	C144.732956,161.837677 144.855423,148.274918 144.917984,134.711868 
	C144.920609,134.142517 144.365326,133.570572 144.069962,132.999832 
	C144.061752,130.632980 144.053528,128.266144 144.212982,125.360435 
	C144.437546,124.714256 144.570114,124.556999 144.538040,124.508392 
	C144.410583,124.315224 144.231705,124.155975 144.071884,123.984161 
	C144.069214,123.241173 144.066544,122.498177 144.281372,121.268700 
	C144.746872,120.579971 144.916473,120.325455 145.007675,120.018669 
	C145.007675,120.018669 145.004944,119.998993 145.336746,119.958344 
	C146.084061,119.247139 146.499557,118.576591 146.915070,117.906036 
	C146.924606,117.495621 146.934128,117.085213 146.947113,116.367386 
M155.974136,195.896179 
	C155.974136,199.326492 155.974136,202.756821 155.974136,206.187134 
	C156.680283,206.152008 157.386414,206.116867 158.092560,206.081741 
	C157.749878,202.060944 157.407196,198.040161 157.840759,193.817688 
	C158.165924,193.471558 158.746582,193.147644 158.778870,192.776077 
	C159.554077,183.854431 160.270584,174.927658 161.002518,165.250488 
	C160.999329,164.499191 160.996140,163.747910 160.884720,162.315140 
	C159.586029,162.202530 158.287338,162.089905 156.198303,162.171158 
	C155.798889,163.656723 155.080582,165.136688 155.054367,166.628830 
	C154.930099,173.702286 154.917221,180.780334 155.035172,187.853912 
	C155.074860,190.234283 155.617950,192.606293 155.974136,195.896179 
z"/>
<path fill="#09FADD" opacity="1.000000" stroke="none" 
	d="
M296.644653,177.099609 
	C297.731903,178.561691 298.800629,179.897827 298.961792,181.335693 
	C299.768158,188.529297 300.496033,195.740631 300.900879,202.965378 
	C301.039581,205.440521 301.018677,208.795715 299.568359,210.309265 
	C296.456116,213.557220 291.853180,211.714523 291.238525,207.110718 
	C290.215759,199.450302 289.430817,191.736282 289.039673,184.019806 
	C288.683167,176.986465 288.972412,176.971802 296.644653,177.099609 
z"/>
<path fill="#C7FAFC" opacity="1.000000" stroke="none" 
	d="
M297.598572,213.083511 
	C296.830444,213.324799 295.664764,213.518799 294.261719,213.502167 
	C295.083221,213.206436 296.142120,213.121338 297.598572,213.083511 
z"/>
<path fill="#057F7B" opacity="1.000000" stroke="none" 
	d="
M54.060062,154.621124 
	C53.343773,154.983994 52.607380,154.990585 51.330051,154.663788 
	C47.809597,151.604736 44.830074,148.879089 41.999725,146.004761 
	C42.148899,145.856094 42.437881,145.549652 42.437881,145.549652 
	C46.305241,148.454712 50.172600,151.359756 54.060062,154.621124 
z"/>
<path fill="#057F7B" opacity="1.000000" stroke="none" 
	d="
M41.294857,144.698288 
	C41.719532,144.709000 41.968193,144.905411 42.305782,145.353058 
	C42.437881,145.549652 42.148899,145.856094 41.783733,145.887787 
	C41.164932,145.695877 40.992298,145.421326 40.900669,145.095840 
	C40.900669,145.095840 41.162014,144.829361 41.294857,144.698288 
z"/>
<path fill="#39DDF4" opacity="1.000000" stroke="none" 
	d="
M60.286991,129.731430 
	C59.149605,129.494431 57.854191,128.954498 56.277962,128.201843 
	C56.500568,127.332695 57.003983,126.676277 57.848656,125.949852 
	C58.836262,127.062721 59.482613,128.245605 60.286991,129.731430 
z"/>
<path fill="#36D9CD" opacity="1.000000" stroke="none" 
	d="
M67.649872,143.004410 
	C66.930748,143.662277 65.827339,144.306824 64.382126,144.900177 
	C64.104156,143.979492 64.168007,143.110001 64.423447,141.970901 
	C65.498558,142.131226 66.382065,142.561157 67.649872,143.004410 
z"/>
<path fill="#36D9CD" opacity="1.000000" stroke="none" 
	d="
M74.009445,137.997192 
	C73.514961,138.234070 73.002846,138.473373 72.228012,138.835785 
	C72.435333,138.057297 72.905373,137.155716 73.702507,136.135986 
	C74.029594,136.017853 74.144272,136.112411 74.090271,136.431046 
	C74.025047,137.177948 74.013832,137.606232 74.002625,138.034500 
	C74.002625,138.034500 73.991821,137.999619 74.009445,137.997192 
z"/>
<path fill="#36D9CD" opacity="1.000000" stroke="none" 
	d="
M73.973389,135.969238 
	C74.105667,135.380676 74.294151,134.840744 74.750801,134.154327 
	C75.018967,134.007828 75.108849,134.081390 75.071533,134.371979 
	C74.737572,135.145844 74.440926,135.629120 74.144272,136.112411 
	C74.144272,136.112411 74.029594,136.017853 73.973389,135.969238 
z"/>
<path fill="#36D9CD" opacity="1.000000" stroke="none" 
	d="
M74.975403,133.969421 
	C75.122643,133.391403 75.313438,132.851791 75.804169,132.199249 
	C76.104095,132.086304 76.232475,132.198364 76.149101,132.466934 
	C75.746765,133.184128 75.427803,133.632751 75.108841,134.081390 
	C75.108849,134.081390 75.018967,134.007828 74.975403,133.969421 
z"/>
<path fill="#36D9CD" opacity="1.000000" stroke="none" 
	d="
M71.740524,139.086731 
	C71.792412,139.255753 71.627739,139.536072 71.229561,139.907684 
	C71.078293,139.670212 71.254265,139.403229 71.740524,139.086731 
z"/>
<path fill="#36D9CD" opacity="1.000000" stroke="none" 
	d="
M70.773422,140.099762 
	C70.821777,140.271317 70.644608,140.546555 70.235641,140.917908 
	C70.085632,140.677017 70.266991,140.406815 70.773422,140.099762 
z"/>
<path fill="#36D9CD" opacity="1.000000" stroke="none" 
	d="
M69.784485,141.108459 
	C69.837036,141.281769 69.659874,141.559769 69.255310,141.944672 
	C69.203529,141.772110 69.379158,141.492645 69.784485,141.108459 
z"/>
<path fill="#36D9CD" opacity="1.000000" stroke="none" 
	d="
M68.816315,142.122589 
	C68.863586,142.302002 68.675446,142.576828 68.247894,142.943375 
	C68.199295,142.762726 68.390099,142.490356 68.816315,142.122589 
z"/>
<path fill="#36D9CD" opacity="1.000000" stroke="none" 
	d="
M76.040970,132.029083 
	C76.090469,131.665833 76.272354,131.408813 76.721695,131.069061 
	C76.919907,130.937317 76.998795,131.001892 76.954597,131.262726 
	C76.755089,131.819504 76.529114,132.044434 76.232475,132.198364 
	C76.232475,132.198364 76.104095,132.086304 76.040970,132.029083 
z"/>
<path fill="#1AF7E4" opacity="1.000000" stroke="none" 
	d="
M144.046616,133.467575 
	C144.365326,133.570572 144.920609,134.142517 144.917984,134.711868 
	C144.855423,148.274918 144.732956,161.837677 144.335892,175.702164 
	C144.041336,161.980988 144.032303,147.958160 144.046616,133.467575 
z"/>
<path fill="#1AF7E4" opacity="1.000000" stroke="none" 
	d="
M146.604797,117.976357 
	C146.499557,118.576591 146.084061,119.247139 145.345398,119.965141 
	C145.446335,119.357285 145.870422,118.701981 146.604797,117.976357 
z"/>
<path fill="#1AF7E4" opacity="1.000000" stroke="none" 
	d="
M144.792130,120.118362 
	C144.916473,120.325455 144.746872,120.579971 144.298920,120.897537 
	C144.146606,120.680885 144.305832,120.415947 144.792130,120.118362 
z"/>
<path fill="#1AF7E4" opacity="1.000000" stroke="none" 
	d="
M144.054016,124.241287 
	C144.231705,124.155975 144.410583,124.315224 144.538040,124.508392 
	C144.570114,124.556999 144.437546,124.714256 144.224701,124.917221 
	C144.057892,124.841393 144.047028,124.669907 144.054016,124.241287 
z"/>
<path fill="#C7FAFC" opacity="1.000000" stroke="none" 
	d="
M149.297638,214.001938 
	C150.690918,213.343140 152.460587,212.711807 154.634796,212.126862 
	C153.250900,212.791962 151.462463,213.410675 149.297638,214.001938 
z"/>
<path fill="#ADADC8" opacity="1.000000" stroke="none" 
	d="
M49.099342,172.878754 
	C49.882347,172.250488 50.655659,171.091568 51.449871,171.077072 
	C58.413151,170.949921 65.380440,171.004501 72.345467,171.091141 
	C72.838654,171.097290 73.323357,171.784744 73.422081,172.548996 
	C65.054558,172.921310 57.076954,172.900024 49.099342,172.878754 
z"/>
<path fill="#3D3E57" opacity="1.000000" stroke="none" 
	d="
M49.079502,173.230774 
	C57.076954,172.900024 65.054558,172.921310 73.496094,172.952240 
	C73.699150,173.445450 73.438271,173.929016 73.046867,174.657806 
	C65.243393,174.676666 57.570454,174.450302 49.489510,174.255783 
	C49.074226,174.052689 49.066940,173.817734 49.079502,173.230774 
z"/>
<path fill="#057F7B" opacity="1.000000" stroke="none" 
	d="
M48.226219,121.783157 
	C49.538860,123.276787 50.851505,124.770416 52.125622,126.595917 
	C52.087097,126.927803 52.035789,126.969337 51.709320,126.861816 
	C50.103790,125.301506 48.824726,123.848709 47.716335,122.243317 
	C47.887009,122.090721 48.226219,121.783157 48.226219,121.783157 
z"/>
<path fill="#057F7B" opacity="1.000000" stroke="none" 
	d="
M47.031227,120.977600 
	C47.488335,120.928230 47.756752,121.108139 48.100250,121.573563 
	C48.226219,121.783157 47.887009,122.090721 47.554619,122.091644 
	C47.007099,121.888367 46.806446,121.670815 46.620270,121.439903 
	C46.620270,121.439903 46.893425,121.130974 47.031227,120.977600 
z"/>
<path fill="#1AEFDF" opacity="1.000000" stroke="none" 
	d="
M40.603889,144.946609 
	C40.992298,145.421326 41.164932,145.695877 41.634560,146.036469 
	C44.830074,148.879089 47.809597,151.604736 50.963387,154.623840 
	C46.354458,152.953476 41.571259,150.989639 36.438766,148.967941 
	C33.772728,145.984421 31.289614,143.171326 29.204350,140.089066 
	C28.034653,138.360123 27.523258,136.185791 27.021801,134.034454 
	C31.654596,137.503632 35.980854,141.150513 40.603889,144.946609 
z"/>
<path fill="#C7FAFC" opacity="1.000000" stroke="none" 
	d="
M164.166534,212.212738 
	C165.473831,211.802444 167.015900,211.667236 168.801544,211.785095 
	C167.497192,212.188034 165.949234,212.337921 164.166534,212.212738 
z"/>
<path fill="#0FF6DA" opacity="1.000000" stroke="none" 
	d="
M144.991730,189.432159 
	C146.810867,191.577774 148.629349,194.150742 150.447815,196.723709 
	C149.958527,197.184097 149.469238,197.644470 148.979935,198.104858 
	C147.835312,197.202438 146.690674,196.300018 145.268661,195.191742 
	C144.991211,193.277084 144.991150,191.568298 144.991730,189.432159 
z"/>
<path fill="#057F7B" opacity="1.000000" stroke="none" 
	d="
M76.149101,132.466934 
	C76.529114,132.044434 76.755089,131.819504 76.993011,131.296234 
	C78.168968,130.019775 79.262314,128.970657 80.685532,127.952042 
	C81.059700,128.158463 81.103996,128.334366 81.180710,128.780884 
	C81.213135,129.051483 81.109108,129.080872 80.842178,129.252747 
	C80.305969,129.919113 80.036682,130.413605 79.767395,130.908096 
	C78.084526,133.309891 76.401649,135.711685 74.360703,138.073990 
	C74.013832,137.606232 74.025047,137.177948 74.090271,136.431046 
	C74.440926,135.629120 74.737572,135.145844 75.071533,134.371979 
	C75.427803,133.632751 75.746765,133.184128 76.149101,132.466934 
z"/>
<path fill="#36D9CD" opacity="1.000000" stroke="none" 
	d="
M80.049957,130.817108 
	C80.036682,130.413605 80.305969,129.919113 80.833931,129.306168 
	C80.839241,129.700516 80.585876,130.213318 80.049957,130.817108 
z"/>
<path fill="#1AF7E4" opacity="1.000000" stroke="none" 
	d="
M149.263153,211.035919 
	C149.287628,210.904831 149.553360,210.784241 149.902328,210.833649 
	C149.985550,211.003616 149.504440,211.046448 149.263153,211.035919 
z"/>
<path fill="#1AEFDF" opacity="1.000000" stroke="none" 
	d="
M30.143929,132.366211 
	C30.168190,132.126678 30.465752,131.939926 30.838787,131.960693 
	C30.748581,132.251801 30.582905,132.335388 30.143929,132.366211 
z"/>
<path fill="#36D9CD" opacity="1.000000" stroke="none" 
	d="
M46.359680,121.302612 
	C46.806446,121.670815 47.007099,121.888367 47.383949,122.244247 
	C48.824726,123.848709 50.103790,125.301506 51.684700,126.883789 
	C52.329067,127.449486 52.671593,127.885681 53.182762,128.549194 
	C51.838310,128.506561 50.325214,128.236588 48.426765,127.961334 
	C46.936676,126.648041 45.831936,125.340034 44.385834,123.995590 
	C44.028320,122.946793 44.012165,121.934433 43.978546,120.545364 
	C44.673748,120.500877 45.386421,120.833099 46.359680,121.302612 
z"/>
<path fill="#0FF6DA" opacity="1.000000" stroke="none" 
	d="
M285.518738,80.911926 
	C284.850403,79.122322 284.476318,77.452095 283.927948,75.003586 
	C286.039795,75.274879 287.648682,75.481560 289.605682,76.227592 
	C289.943054,77.495033 289.932281,78.223129 289.921509,78.951218 
	C289.465546,80.301590 289.009613,81.651962 288.441193,83.335526 
	C287.576752,82.577629 286.694916,81.804474 285.518738,80.911926 
z"/>
<path fill="#61DFCF" opacity="1.000000" stroke="none" 
	d="
M290.025818,79.160431 
	C289.932281,78.223129 289.943054,77.495033 289.943970,76.403152 
	C290.044952,75.754166 290.195984,75.492149 290.554108,75.101685 
	C290.798157,76.362251 290.875336,77.774452 290.866058,79.604065 
	C290.500763,79.866386 290.284271,79.649109 290.025818,79.160431 
z"/>
<path fill="#61DFCF" opacity="1.000000" stroke="none" 
	d="
M290.596710,82.154587 
	C290.820526,82.443184 290.864197,82.892036 290.808380,83.666855 
	C290.611450,83.433487 290.514008,82.874168 290.596710,82.154587 
z"/>
<path fill="#3D3D56" opacity="1.000000" stroke="none" 
	d="
M173.784363,92.798309 
	C173.768082,93.693283 173.651581,94.464775 173.203217,94.849121 
	C171.333298,96.452011 162.482208,95.153702 160.889221,92.608810 
	C162.078232,91.791122 163.016922,91.451225 163.955612,91.111328 
	C164.422852,91.099403 164.890091,91.087479 165.708099,91.111984 
	C168.549774,91.597870 171.040649,92.047325 173.784363,92.798309 
z"/>
<path fill="#283971" opacity="1.000000" stroke="none" 
	d="
M163.522919,91.062668 
	C163.016922,91.451225 162.078232,91.791122 160.752808,92.206375 
	C159.495346,92.342789 158.624619,92.403847 157.445618,92.599030 
	C159.121658,92.160103 161.105942,91.587059 163.522919,91.062668 
z"/>
<path fill="#1AEFDF" opacity="1.000000" stroke="none" 
	d="
M160.997742,166.001831 
	C160.270584,174.927658 159.554077,183.854431 158.778870,192.776077 
	C158.746582,193.147644 158.165924,193.471558 157.430603,193.477615 
	C156.682877,190.432877 156.345291,187.728226 156.004639,184.556519 
	C156.311951,179.175125 156.782364,174.263733 156.874161,169.345276 
	C156.931427,166.276138 158.531967,165.766647 160.997742,166.001831 
z"/>
<path fill="#1AF7E4" opacity="1.000000" stroke="none" 
	d="
M161.000122,165.626160 
	C158.531967,165.766647 156.931427,166.276138 156.874161,169.345276 
	C156.782364,174.263733 156.311951,179.175125 156.001968,185.007660 
	C155.978577,188.944595 155.954773,191.963364 155.930969,194.982117 
	C155.617950,192.606293 155.074860,190.234283 155.035172,187.853912 
	C154.917221,180.780334 154.930099,173.702286 155.054367,166.628830 
	C155.080582,165.136688 155.798889,163.656723 156.825455,162.348724 
	C158.632721,162.683075 159.812836,162.839844 160.992950,162.996613 
	C160.996140,163.747910 160.999329,164.499191 161.000122,165.626160 
z"/>
<path fill="#0FF6DA" opacity="1.000000" stroke="none" 
	d="
M155.952545,195.439148 
	C155.954773,191.963364 155.978577,188.944595 156.005035,185.474701 
	C156.345291,187.728226 156.682877,190.432877 157.042480,193.578461 
	C157.407196,198.040161 157.749878,202.060944 158.092560,206.081741 
	C157.386414,206.116867 156.680283,206.152008 155.974136,206.187134 
	C155.974136,202.756821 155.974136,199.326492 155.952545,195.439148 
z"/>
<path fill="#1AEFDF" opacity="1.000000" stroke="none" 
	d="
M160.938843,162.655884 
	C159.812836,162.839844 158.632721,162.683075 157.220627,162.251801 
	C158.287338,162.089905 159.586029,162.202530 160.938843,162.655884 
z"/>
</svg>